<svg width="418" height="46" viewBox="0 0 418 46" fill="none" xmlns="http://www.w3.org/2000/svg">
<path d="M0.929688 15.8584C0.929688 14.4424 1.43424 13.2298 2.44336 12.2207C3.45247 11.2116 4.67318 10.707 6.10547 10.707H13.8203C15.9036 10.707 17.6126 11.3581 18.9473 12.6602C20.2493 11.3581 21.9583 10.707 24.0742 10.707H27.8828C29.5592 10.707 31.0892 11.1221 32.4727 11.9521C33.8561 12.766 34.9548 13.8646 35.7686 15.248C36.5986 16.6152 37.0137 18.137 37.0137 19.8135V36H31.8867V19.8867C31.8867 18.7637 31.4961 17.8115 30.7148 17.0303C29.9336 16.2327 28.9896 15.834 27.8828 15.834H24.0742C23.3581 15.834 22.7477 16.0618 22.2432 16.5176C21.7386 16.957 21.4863 17.4941 21.4863 18.1289V36H16.335V18.1289C16.335 17.4941 16.0908 16.957 15.6025 16.5176C15.1143 16.0618 14.5202 15.834 13.8203 15.834H6.08105V36H0.929688V15.8584ZM42.873 10.707H48.0244V26.7959C48.0244 27.9352 48.415 28.9036 49.1963 29.7012C49.9775 30.4987 50.9134 30.8975 52.0039 30.8975H60.9639V10.707H66.1152V30.873C66.1152 32.2891 65.6107 33.5016 64.6016 34.5107C63.5924 35.5036 62.3636 36 60.915 36H52.0039C50.3275 36 48.7975 35.5931 47.4141 34.7793C46.0306 33.9492 44.9238 32.8424 44.0938 31.459C43.2799 30.0755 42.873 28.5456 42.873 26.8691V10.707ZM71.7305 17.8115C71.7305 16.4932 72.056 15.2969 72.707 14.2227C73.3743 13.1484 74.2533 12.2939 75.3438 11.6592C76.4505 11.0244 77.6712 10.707 79.0059 10.707H93.8496V15.8584H79.0059C78.4199 15.8584 77.9154 16.0537 77.4922 16.4443C77.0853 16.8187 76.8818 17.2744 76.8818 17.8115V18.4219C76.8818 18.9753 77.0853 19.4473 77.4922 19.8379C77.9154 20.2285 78.4199 20.4238 79.0059 20.4238H88.2344C89.569 20.4238 90.7816 20.7493 91.8721 21.4004C92.9788 22.0352 93.8577 22.8896 94.5088 23.9639C95.1598 25.0381 95.4854 26.2344 95.4854 27.5527V28.8711C95.4854 30.1732 95.1598 31.3695 94.5088 32.46C93.8577 33.5342 92.9788 34.3968 91.8721 35.0479C90.7816 35.6826 89.569 36 88.2344 36H72.8779V30.8486H88.2344C88.8203 30.8486 89.3167 30.6533 89.7236 30.2627C90.1468 29.8721 90.3584 29.4001 90.3584 28.8467V27.5771C90.3584 27.0075 90.1468 26.5273 89.7236 26.1367C89.3167 25.7461 88.8203 25.5508 88.2344 25.5508H79.0059C77.6712 25.5508 76.4505 25.2334 75.3438 24.5986C74.2533 23.9476 73.3743 23.085 72.707 22.0107C72.056 20.9202 71.7305 19.724 71.7305 18.4219V17.8115ZM100.539 3.82227C100.539 2.94336 100.848 2.19466 101.467 1.57617C102.085 0.957682 102.834 0.648438 103.713 0.648438C104.592 0.648438 105.34 0.957682 105.959 1.57617C106.577 2.19466 106.887 2.94336 106.887 3.82227C106.887 4.70117 106.577 5.44987 105.959 6.06836C105.34 6.68685 104.592 6.99609 103.713 6.99609C102.834 6.99609 102.085 6.68685 101.467 6.06836C100.848 5.44987 100.539 4.70117 100.539 3.82227ZM101.125 10.707H106.301V36H101.125V10.707ZM111.916 19.8379C111.916 18.1615 112.339 16.6315 113.186 15.248C114.032 13.8646 115.163 12.766 116.579 11.9521C117.995 11.1221 119.566 10.707 121.291 10.707H135.524V15.8584H121.291C120.135 15.8584 119.143 16.2572 118.312 17.0547C117.482 17.8359 117.067 18.7881 117.067 19.9111V26.7715C117.067 27.8945 117.474 28.8548 118.288 29.6523C119.118 30.4499 120.119 30.8486 121.291 30.8486H135.524V36H121.291C119.566 36 117.995 35.585 116.579 34.7549C115.163 33.9248 114.032 32.818 113.186 31.4346C112.339 30.0348 111.916 28.4967 111.916 26.8203V19.8379ZM155.568 1.2832H160.72V30.8486H169.68C170.786 30.8486 171.722 30.458 172.487 29.6768C173.269 28.8955 173.659 27.9596 173.659 26.8691V19.8867C173.659 18.7799 173.269 17.8359 172.487 17.0547C171.722 16.2572 170.786 15.8584 169.68 15.8584H163.649V10.707H169.68C171.356 10.707 172.886 11.1221 174.27 11.9521C175.653 12.766 176.752 13.8646 177.565 15.248C178.396 16.6315 178.811 18.1615 178.811 19.8379V26.918C178.811 28.5781 178.396 30.0999 177.565 31.4834C176.752 32.8506 175.653 33.9492 174.27 34.7793C172.886 35.5931 171.356 36 169.68 36H160.72C159.304 36 158.091 35.4954 157.082 34.4863C156.073 33.4772 155.568 32.2646 155.568 30.8486V1.2832ZM188.674 10.707L195.241 28.2363L201.955 10.707H207.644L194.216 45.5215H188.576L192.507 35.1699L183.205 10.707H188.674ZM225.246 8.53418C225.246 7.19954 225.572 5.98698 226.223 4.89648C226.89 3.78971 227.769 2.91081 228.859 2.25977C229.966 1.60872 231.187 1.2832 232.521 1.2832H238.161V6.41016H232.521C231.936 6.41016 231.431 6.62174 231.008 7.04492C230.601 7.45182 230.397 7.94824 230.397 8.53418V10.707H238.259V15.834H230.397V36H225.246V8.53418ZM240.725 19.8379C240.725 18.1615 241.132 16.6315 241.945 15.248C242.775 13.8646 243.882 12.766 245.266 11.9521C246.649 11.1221 248.179 10.707 249.855 10.707H255.373C257.049 10.707 258.579 11.1221 259.963 11.9521C261.346 12.766 262.445 13.8646 263.259 15.248C264.089 16.6315 264.504 18.1615 264.504 19.8379V26.8691C264.504 28.5456 264.089 30.0755 263.259 31.459C262.445 32.8424 261.346 33.9492 259.963 34.7793C258.579 35.5931 257.049 36 255.373 36H249.855C248.179 36 246.649 35.5931 245.266 34.7793C243.882 33.9492 242.775 32.8424 241.945 31.459C241.132 30.0755 240.725 28.5456 240.725 26.8691V19.8379ZM245.876 26.8203C245.876 27.9271 246.267 28.8792 247.048 29.6768C247.829 30.458 248.765 30.8486 249.855 30.8486H255.373C256.48 30.8486 257.416 30.458 258.181 29.6768C258.962 28.8792 259.353 27.9271 259.353 26.8203V19.8867C259.353 18.7799 258.962 17.8359 258.181 17.0547C257.416 16.2572 256.48 15.8584 255.373 15.8584H249.855C248.765 15.8584 247.829 16.2572 247.048 17.0547C246.267 17.8359 245.876 18.7799 245.876 19.8867V26.8203ZM269.875 19.8379C269.875 18.1615 270.282 16.6315 271.096 15.248C271.926 13.8646 273.033 12.766 274.416 11.9521C275.799 11.1221 277.329 10.707 279.006 10.707H284.523C286.2 10.707 287.73 11.1221 289.113 11.9521C290.497 12.766 291.595 13.8646 292.409 15.248C293.239 16.6315 293.654 18.1615 293.654 19.8379V26.8691C293.654 28.5456 293.239 30.0755 292.409 31.459C291.595 32.8424 290.497 33.9492 289.113 34.7793C287.73 35.5931 286.2 36 284.523 36H279.006C277.329 36 275.799 35.5931 274.416 34.7793C273.033 33.9492 271.926 32.8424 271.096 31.459C270.282 30.0755 269.875 28.5456 269.875 26.8691V19.8379ZM275.026 26.8203C275.026 27.9271 275.417 28.8792 276.198 29.6768C276.979 30.458 277.915 30.8486 279.006 30.8486H284.523C285.63 30.8486 286.566 30.458 287.331 29.6768C288.112 28.8792 288.503 27.9271 288.503 26.8203V19.8867C288.503 18.7799 288.112 17.8359 287.331 17.0547C286.566 16.2572 285.63 15.8584 284.523 15.8584H279.006C277.915 15.8584 276.979 16.2572 276.198 17.0547C275.417 17.8359 275.026 18.7799 275.026 19.8867V26.8203ZM299.025 1.2832H304.177V30.8486H313.137C314.243 30.8486 315.179 30.458 315.944 29.6768C316.726 28.8955 317.116 27.9596 317.116 26.8691V19.8867C317.116 18.7799 316.726 17.8359 315.944 17.0547C315.179 16.2572 314.243 15.8584 313.137 15.8584H307.106V10.707H313.137C314.813 10.707 316.343 11.1221 317.727 11.9521C319.11 12.766 320.209 13.8646 321.022 15.248C321.853 16.6315 322.268 18.1615 322.268 19.8379V26.918C322.268 28.5781 321.853 30.0999 321.022 31.4834C320.209 32.8506 319.11 33.9492 317.727 34.7793C316.343 35.5931 314.813 36 313.137 36H304.177C302.761 36 301.548 35.4954 300.539 34.4863C299.53 33.4772 299.025 32.2646 299.025 30.8486V1.2832ZM326.906 10.707H330.202V1.2832H335.354V10.707H343.142V15.8584H335.354V28.8223C335.354 29.3757 335.565 29.8558 335.988 30.2627C336.428 30.6533 336.949 30.8486 337.551 30.8486H343.142V36H337.478C336.143 36 334.922 35.6826 333.815 35.0479C332.725 34.3968 331.846 33.5342 331.179 32.46C330.528 31.3695 330.202 30.165 330.202 28.8467V15.8584H326.906V10.707ZM347.805 17.7871C347.805 16.485 348.13 15.2969 348.781 14.2227C349.449 13.1484 350.327 12.2939 351.418 11.6592C352.525 11.0244 353.745 10.707 355.08 10.707H360.72V15.834H355.08C354.494 15.834 353.99 16.0374 353.566 16.4443C353.16 16.835 352.956 17.3151 352.956 17.8848V36H347.805V17.7871ZM365.383 15.9316C365.383 14.4831 365.912 13.2542 366.97 12.2451C368.028 11.2197 369.297 10.707 370.778 10.707H381.325C382.676 10.707 383.897 11.0407 384.987 11.708C386.094 12.359 386.973 13.2461 387.624 14.3691C388.291 15.4759 388.625 16.7048 388.625 18.0557V18.7637C388.625 20.0983 388.291 21.319 387.624 22.4258C386.973 23.5163 386.094 24.3952 384.987 25.0625C383.897 25.7135 382.676 26.0391 381.325 26.0391H373.464V20.9121H381.374C381.96 20.9121 382.456 20.7005 382.863 20.2773C383.286 19.8542 383.498 19.3415 383.498 18.7393V18.0557C383.498 17.4372 383.286 16.9163 382.863 16.4932C382.456 16.07 381.96 15.8584 381.374 15.8584H370.534V28.8467C370.534 29.4001 370.721 29.8721 371.096 30.2627C371.47 30.6533 371.926 30.8486 372.463 30.8486H386.843V36H372.463C371.161 36 369.973 35.6826 368.898 35.0479C367.824 34.3968 366.97 33.5342 366.335 32.46C365.7 31.3695 365.383 30.1732 365.383 28.8711V15.9316ZM394.24 15.9316C394.24 14.4831 394.769 13.2542 395.827 12.2451C396.885 11.2197 398.155 10.707 399.636 10.707H410.183C411.534 10.707 412.754 11.0407 413.845 11.708C414.951 12.359 415.83 13.2461 416.481 14.3691C417.149 15.4759 417.482 16.7048 417.482 18.0557V18.7637C417.482 20.0983 417.149 21.319 416.481 22.4258C415.83 23.5163 414.951 24.3952 413.845 25.0625C412.754 25.7135 411.534 26.0391 410.183 26.0391H402.321V20.9121H410.231C410.817 20.9121 411.314 20.7005 411.721 20.2773C412.144 19.8542 412.355 19.3415 412.355 18.7393V18.0557C412.355 17.4372 412.144 16.9163 411.721 16.4932C411.314 16.07 410.817 15.8584 410.231 15.8584H399.392V28.8467C399.392 29.4001 399.579 29.8721 399.953 30.2627C400.327 30.6533 400.783 30.8486 401.32 30.8486H415.7V36H401.32C400.018 36 398.83 35.6826 397.756 35.0479C396.682 34.3968 395.827 33.5342 395.192 32.46C394.558 31.3695 394.24 30.1732 394.24 28.8711V15.9316Z" fill="white"/>
</svg>
