<svg width="806" height="844" viewBox="0 0 806 844" fill="none" xmlns="http://www.w3.org/2000/svg">
<path d="M431.548 14.7783C458.908 24.5883 486.278 34.4083 513.638 44.2183C517.268 46.6683 520.658 49.5683 524.548 51.4883C717.338 146.948 827.858 350.908 801.978 564.258C799.228 586.918 794.738 609.358 791.058 631.908C781.248 659.268 771.428 686.638 761.618 713.998C758.698 718.698 755.368 723.198 752.918 728.128C659.488 916.558 453.578 1028.01 244.798 1002.73C221.068 999.858 197.548 995.228 173.928 991.408C146.568 981.598 119.198 971.778 91.8379 961.968C88.1979 959.528 84.778 956.648 80.8879 954.718C-111.612 859.128 -221.352 657.128 -196.522 443.268C-193.842 420.168 -189.272 397.278 -185.582 374.288C-175.772 346.928 -165.952 319.558 -156.142 292.198C-153.462 288.088 -150.312 284.208 -148.162 279.838C-54.9021 90.2683 151.268 -21.8017 360.898 3.55832C384.558 6.41832 408.008 10.9983 431.548 14.7883V14.7783ZM365.538 769.528C377.338 717.128 388.058 669.518 398.668 622.398C356.518 611.878 317.208 602.078 277.088 592.058C260.418 638.528 243.728 685.058 225.618 735.558C272.158 746.858 317.318 757.818 365.538 769.528ZM214.308 731.528C232.468 680.888 249.278 634.018 265.808 587.938C227.918 569.948 191.348 552.588 152.828 534.298C130.758 578.268 108.868 621.868 85.2279 668.948C129.478 690.398 171.298 710.678 214.308 731.528ZM336.028 429.098C317.748 480.068 299.828 530.038 280.878 582.868C321.148 592.778 359.708 602.268 400.808 612.388C408.948 555.908 416.528 503.308 424.068 450.958C393.328 443.328 365.338 436.378 336.028 429.108V429.098ZM157.578 525.418C196.268 543.778 232.448 560.938 269.098 578.328C288.428 524.448 306.348 474.468 324.158 424.808C296.718 411.738 270.668 399.328 242.258 385.808C214.768 431.128 187.198 476.588 157.578 525.428V525.418ZM181.158 859.978C227.138 870.178 271.518 880.138 316.008 889.598C318.728 890.178 324.258 887.568 325.148 885.198C338.298 849.898 350.878 814.388 363.448 779.348C314.088 767.358 268.818 756.358 222.378 745.068C209.408 781.218 196.158 818.188 181.168 859.978H181.158ZM79.7379 677.568C72.5079 697.718 65.1579 717.458 58.3679 737.388C52.6379 754.208 39.2779 774.608 44.4179 787.298C49.9379 800.918 72.4979 808.628 88.7279 816.678C115.388 829.898 142.938 841.318 170.338 853.598C184.828 813.198 198.068 776.288 210.768 740.878C167.638 720.038 126.048 699.948 79.7379 677.578V677.568ZM522.068 627.818C482.108 626.308 446.158 624.958 408.678 623.538C397.968 670.988 387.108 719.058 375.418 770.828C415.058 770.718 452.818 770.828 490.568 770.178C494.328 770.118 500.798 765.938 501.298 762.898C508.668 718.068 515.248 673.108 522.068 627.818ZM54.2479 460.028C30.7079 499.338 7.19791 538.228 -15.6021 577.518C-17.1521 580.178 -14.7921 587.518 -11.9221 589.958C16.7979 614.438 46.0079 638.358 76.5779 663.668C100.458 616.238 122.618 572.218 144.488 528.778C114.658 506.048 86.0379 484.248 54.2579 460.028H54.2479ZM149.218 519.938C178.838 471.068 206.428 425.558 233.858 380.308C211.388 362.788 189.998 346.108 166.088 327.448C131.358 368.308 96.9279 408.828 60.3479 451.878C91.4179 475.668 119.538 497.198 149.218 519.928V519.938ZM522.748 617.698C521.688 560.198 520.718 507.128 519.748 454.258C488.528 453.518 461.458 452.888 433.988 452.238C426.298 505.608 418.718 558.298 410.738 613.678C447.818 615.008 483.198 616.278 522.748 617.698ZM-19.1521 371.128C-44.6821 404.068 -69.7121 436.038 -94.1921 468.428C-96.6721 471.718 -97.9621 478.648 -96.2021 481.988C-78.1721 516.198 -54.7621 546.468 -27.7721 574.458C-1.9021 532.878 23.0479 492.758 47.5679 453.348C26.3079 427.148 5.28792 401.248 -19.1521 371.128ZM531.488 626.888C525.258 673.738 519.088 720.138 512.428 770.278C541.448 763.498 570.038 758.638 597.428 749.998C637.578 737.328 630.888 745.098 633.418 703.648C635.398 671.218 633.808 638.578 633.808 606.108C597.268 613.528 564.568 620.178 531.488 626.898V626.888ZM500.038 782.278C454.938 781.408 413.948 780.618 374.028 779.848C360.738 816.888 347.478 853.878 332.598 895.358C375.088 895.338 413.948 895.488 452.808 895.008C456.308 894.968 461.788 891.518 462.918 888.408C475.548 853.538 487.518 818.428 500.038 782.278ZM-28.0621 592.518C-41.0121 628.608 -53.5821 662.978 -65.3821 697.608C-66.6121 701.218 -64.6721 708.118 -61.7521 710.588C-32.1321 735.698 -2.01208 760.198 30.6579 787.078C45.6179 745.378 58.9079 708.308 72.0879 671.548C40.4079 646.548 8.22791 621.158 -28.0621 592.518ZM53.0779 444.798C90.3579 401.098 124.938 360.568 159.618 319.928C145.848 302.188 131.958 284.298 115.708 263.368C73.8879 296.438 32.2879 329.328 -11.5821 363.998C11.6979 393.088 32.0879 418.568 53.0679 444.788L53.0779 444.798ZM532.698 616.968C566.208 609.738 598.478 602.768 634.088 595.088C621.988 539.858 610.718 488.408 599.428 436.898C573.118 442.908 550.618 448.048 529.788 452.808C530.748 507.238 531.688 560.098 532.698 616.968ZM474.808 893.018C513.138 888.868 549.798 880.318 585.218 866.478C588.088 865.358 591.098 862.828 592.558 860.148C610.748 826.578 622.018 790.788 627.648 754.128C589.678 762.248 552.738 769.928 515.978 778.348C512.298 779.188 508.008 784.048 506.788 787.918C496.038 821.958 485.918 856.188 474.808 893.018ZM-76.6521 696.058C-71.6521 682.128 -67.6821 670.628 -63.4021 659.238C-59.0821 647.738 -56.3621 635.058 -49.6321 625.148C-30.6721 597.248 -34.3421 575.798 -59.3921 552.408C-77.9921 535.038 -90.4521 511.118 -106.632 488.758C-126.342 522.228 -140.282 556.558 -147.662 593.478C-148.272 596.538 -148.132 600.488 -146.682 603.118C-128.122 636.928 -104.872 667.148 -76.6521 696.048V696.058ZM643.528 590.798C662.588 579.718 682.018 568.208 701.658 557.098C711.348 551.618 714.518 544.658 710.718 533.708C699.778 502.148 689.698 470.298 678.708 438.758C674.228 425.908 668.278 413.558 662.998 400.998C642.138 413.178 624.918 423.228 608.628 432.738C620.028 484.378 631.418 535.938 643.538 590.798H643.528ZM-16.5121 354.708C28.2579 319.608 70.0479 286.848 111.398 254.438C104.538 235.858 97.6479 217.188 90.2079 197.058C44.1979 217.038 1.3979 241.458 -37.4121 272.628C-40.0421 274.738 -41.7921 280.908 -40.7421 284.168C-33.1421 307.778 -24.7221 331.128 -16.5121 354.718V354.708ZM37.3179 802.318C34.8979 812.608 32.0079 823.178 29.9679 833.908C24.4946 862.742 34.4113 884.158 59.7179 898.158C61.6679 899.238 63.4879 900.578 65.5079 901.498C90.5379 912.978 115.588 924.398 140.888 935.948C150.388 909.468 158.718 886.238 166.608 864.228C123.188 843.428 81.2079 823.328 37.3179 802.308V802.318ZM319.208 903.208C269.828 891.038 224.238 879.818 178.378 868.518C170.038 891.778 161.718 914.968 152.008 942.038C192.838 950.958 231.798 959.628 270.878 967.718C274.458 968.458 280.758 966.698 282.488 963.988C295.158 944.108 306.988 923.678 319.218 903.218L319.208 903.208ZM388.218 283.128C371.848 328.788 355.988 372.998 339.268 419.608C367.988 426.728 395.198 433.488 425.548 441.008C428.318 391.978 431.058 346.538 433.078 301.068C433.218 297.928 428.478 292.678 425.038 291.628C413.408 288.098 401.348 286.028 388.218 283.128ZM333.798 258.018C305.778 296.908 277.848 335.648 247.828 377.308C275.948 390.718 301.318 402.818 328.808 415.928C344.988 370.808 360.348 328.408 375.108 285.798C376.018 283.168 373.098 277.178 370.348 275.658C359.218 269.498 347.468 264.468 333.798 258.008V258.018ZM644.548 732.238C653.688 727.388 662.698 721.958 672.218 717.668C711.868 699.788 730.218 670.768 723.058 626.428C719.608 605.028 718.948 583.188 717.028 561.648C692.538 574.568 670.798 585.698 649.488 597.598C646.138 599.468 642.658 604.778 642.678 608.478C642.898 649.028 643.798 689.578 644.548 732.238ZM-55.4521 282.078C-81.0021 312.308 -105.062 340.528 -128.692 369.098C-131.212 372.138 -133.142 377.698 -132.202 381.258C-124.892 408.938 -116.812 436.408 -108.632 465.138C-79.0821 430.498 -52.3521 399.398 -26.0521 367.918C-23.9121 365.358 -23.1921 359.708 -24.4421 356.538C-33.6421 333.358 -43.5121 310.458 -55.4421 282.068L-55.4521 282.078ZM239.488 371.778C269.158 330.578 297.108 291.778 325.478 252.388C315.968 243.948 307.158 235.478 297.558 228.028C294.928 225.988 288.448 225.118 286.268 226.858C248.988 256.718 212.108 287.078 172.368 319.598C197.348 339.018 218.208 355.238 239.478 371.778H239.488ZM520.118 444.078C510.168 393.908 501.088 347.448 491.428 301.128C490.808 298.168 485.648 294.148 482.508 294.068C469.868 293.728 457.188 294.748 444.608 295.268C441.478 344.118 438.408 391.828 435.178 442.208C462.678 442.818 489.068 443.398 520.118 444.088V444.078ZM727.348 539.588C740.068 519.468 752.608 499.978 764.678 480.198C766.548 477.138 767.738 472.348 766.778 469.088C753.458 424.378 731.998 383.838 704.558 346.198C693.258 361.298 682.748 374.748 673.058 388.768C671.078 391.638 670.818 397.208 672.138 400.598C689.738 445.648 707.778 490.538 727.338 539.588H727.348ZM92.5179 126.578C47.6079 138.218 5.77791 155.708 -32.7121 181.078C-34.8921 182.518 -36.9821 185.008 -37.8021 187.448C-45.9921 211.838 -48.0221 236.688 -44.8321 259.608C-1.6221 235.878 40.8579 212.738 83.0279 189.048C86.3579 187.178 89.0579 181.628 89.4479 177.528C90.9879 161.518 91.4879 145.398 92.5279 126.568L92.5179 126.578ZM12.6279 873.268C18.2379 845.838 23.2279 823.688 26.8779 801.328C27.5079 797.468 23.4579 791.388 19.8279 788.558C5.76791 777.588 -9.33209 767.948 -23.4021 756.998C-38.9421 744.908 -53.7921 731.918 -73.2321 715.738C-74.5821 742.898 -76.1421 765.478 -76.4521 788.088C-76.5221 792.888 -73.1321 799.038 -69.3821 802.358C-43.1721 825.588 -16.4621 848.248 12.6279 873.268ZM293.328 969.848C297.148 970.448 300.248 971.318 303.378 971.368C328.998 971.818 354.648 973.048 380.238 972.248C413.558 971.198 445.358 940.928 451.048 907.878C413.428 906.238 375.658 904.348 337.858 903.308C333.648 903.188 327.478 906.808 325.338 910.508C314.468 929.278 304.638 948.638 293.338 969.868L293.328 969.848ZM596.618 427.288C573.928 376.258 553.038 329.278 532.028 282.018C519.028 286.088 509.698 289.008 501.678 291.518C510.868 342.168 519.778 391.238 529.088 442.548C549.898 437.848 570.798 433.128 596.608 427.298L596.618 427.288ZM166.638 312.458C206.828 278.448 245.228 245.958 283.968 213.178C278.698 205.398 273.428 197.638 266.058 186.768C219.598 210.098 173.278 233.358 124.188 258.008C140.488 278.908 153.648 295.798 166.648 312.468L166.638 312.458ZM253.948 146.878C202.108 161.258 151.928 175.188 98.6879 189.958C107.008 212.928 113.648 231.268 119.998 248.818C169.318 224.078 215.898 200.708 262.538 177.308C260.088 168.638 257.678 160.108 253.938 146.878H253.948ZM540.958 277.178C562.628 326.118 583.738 373.788 605.668 423.308C622.338 413.178 638.788 403.188 659.358 390.698C627.428 345.418 597.178 302.508 566.688 259.258C555.518 267.038 548.248 272.098 540.968 277.168L540.958 277.178ZM-158.492 578.098C-143.672 545.838 -128.982 514.108 -114.632 482.218C-113.202 479.028 -112.582 474.438 -113.742 471.288C-123.142 445.778 -133.062 420.448 -142.682 395.418C-183.592 440.908 -190.832 524.258 -158.502 578.098H-158.492ZM717.738 701.588C691.598 716.398 667.708 729.468 644.448 743.578C640.678 745.868 638.998 752.538 637.548 757.538C630.408 782.178 623.798 806.978 616.718 831.638C614.538 839.238 611.448 846.578 608.588 854.528C684.458 831.048 703.078 769.178 717.728 701.588H717.738ZM666.318 382.688C673.858 371.708 681.398 360.818 688.828 349.858C695.748 339.658 695.038 330.658 685.688 321.798C657.768 295.368 630.308 268.448 602.438 241.958C597.478 237.248 591.418 233.708 585.218 229.158C579.758 238.628 575.648 245.768 572.688 250.898C603.898 294.828 634.198 337.478 666.318 382.678V382.688ZM258.728 112.178C208.888 108.598 161.278 111.708 114.168 121.878C110.648 122.638 105.788 126.728 105.188 129.938C102.128 146.408 100.268 163.098 98.0479 179.238C152.708 164.468 203.648 150.708 254.908 136.858C255.978 129.938 257.168 122.278 258.728 112.178ZM-54.4221 197.508C-109.732 235.508 -144.892 283.868 -134.352 353.728C-109.042 328.038 -82.9021 301.648 -57.0421 274.988C-55.1021 272.988 -54.5021 268.998 -54.4721 265.928C-54.2821 243.278 -54.4021 220.618 -54.4221 197.518V197.508ZM771.298 491.908C767.158 498.608 764.258 504.038 760.678 508.968C749.078 524.898 731.458 539.198 727.038 556.848C722.348 575.578 730.718 597.368 732.208 617.908C733.388 634.078 732.788 650.368 732.998 668.078C781.918 621.898 796.298 555.388 771.298 491.908ZM-150.722 622.348C-161.402 676.748 -132.162 750.728 -89.1121 777.468C-86.1421 756.888 -83.0221 736.108 -80.2521 715.288C-79.8521 712.258 -79.9321 708.108 -81.6521 705.998C-104.632 677.778 -127.932 649.828 -150.722 622.348ZM430.158 965.448C495.608 961.938 563.148 923.078 575.998 883.558C542.688 889.988 508.318 896.478 474.058 903.458C470.268 904.228 465.858 907.108 463.808 910.328C452.498 928.048 441.828 946.168 430.168 965.448H430.158ZM591.648 197.478C586.438 211.238 589.218 219.278 600.078 228.358C628.238 251.918 654.778 277.418 681.738 302.398C687.518 307.758 692.308 314.198 697.558 320.138C699.308 319.568 701.068 319.008 702.818 318.438C701.888 305.038 706.098 287.318 699.118 278.988C669.998 244.228 633.008 218.438 591.658 197.468L591.648 197.478ZM273.898 82.7683C258.228 80.4683 244.038 77.2983 229.718 76.5183C205.828 75.2283 181.808 76.2083 157.918 74.8883C132.288 73.4783 121.768 89.4283 114.438 107.238C158.518 105.318 202.918 102.548 247.338 101.958C261.188 101.778 269.448 98.4583 273.898 82.7483V82.7683ZM775.378 447.748C779.118 426.558 784.768 403.848 771.458 381.838C757.668 359.018 743.918 336.168 729.798 313.558C725.978 307.438 720.878 302.118 716.358 296.438C714.798 297.048 713.248 297.668 711.688 298.278C711.478 311.618 706.548 327.368 711.918 337.848C731.048 375.228 753.668 410.808 775.378 447.748ZM115.118 82.4983C111.878 82.3583 109.538 81.6383 107.668 82.2683C73.9179 93.7783 39.5479 103.868 6.77791 117.718C-11.2521 125.338 -18.9321 144.728 -27.3321 161.468C7.88791 147.628 41.2579 131.578 76.3779 121.768C98.8779 115.488 107.208 101.598 115.118 82.4883V82.4983ZM583.768 159.538C584.148 177.108 592.018 185.708 605.158 193.968C633.888 212.018 660.788 232.968 688.418 252.758C691.748 255.138 694.978 257.668 698.258 260.118C699.818 259.098 701.378 258.088 702.948 257.068C694.458 239.948 689.698 218.898 676.678 206.538C651.508 182.648 618.988 169.208 583.768 159.538ZM307.208 56.5283C276.608 49.3383 250.108 43.1583 223.628 36.8683C193.998 29.8283 172.848 45.6283 148.558 64.3083C155.918 64.5283 159.598 64.5083 163.268 64.7583C198.268 67.1383 233.458 68.0383 268.158 72.6783C283.578 74.7383 293.428 70.9183 307.208 56.5283ZM434.928 283.628C433.598 244.278 432.408 208.978 431.218 173.668C429.998 173.588 428.778 173.498 427.568 173.418C415.878 206.028 404.178 238.638 391.798 273.158C406.008 276.608 418.738 279.698 434.928 283.628ZM416.048 170.018C414.968 169.068 413.898 168.128 412.818 167.178C389.278 194.078 365.738 220.968 340.378 249.948C355.748 257.208 367.598 262.808 380.568 268.938C392.868 234.648 404.458 202.338 416.038 170.028L416.048 170.018ZM445.808 174.008L441.408 175.748C442.548 211.548 443.678 247.358 444.868 284.738C459.198 284.388 472.168 284.068 488.928 283.658C473.708 244.948 459.758 209.478 445.808 174.008ZM331.988 244.288C356.858 215.818 380.138 189.158 403.428 162.498C402.528 161.198 401.628 159.908 400.718 158.608C367.558 177.088 334.398 195.568 298.548 215.538C311.448 226.628 321.028 234.868 331.978 244.288H331.988ZM-145.232 301.628C-171.982 354.718 -184.752 408.068 -186.092 464.368C-179.302 450.398 -174.882 435.628 -168.742 421.608C-162.262 406.808 -154.032 392.778 -146.832 378.278C-145.412 375.408 -144.442 371.968 -144.452 368.798C-144.522 347.698 -144.902 326.598 -145.242 301.628H-145.232ZM707.928 779.218C732.828 757.708 774.438 666.808 773.628 633.438C767.768 641.708 762.668 649.648 756.808 656.978C748.148 667.818 734.888 676.858 730.798 689.088C720.878 718.718 715.118 749.748 707.928 779.228V779.218ZM140.938 971.958C176.118 979.048 209.588 986.668 243.418 991.928C250.878 993.088 259.648 985.878 267.818 982.518C267.308 981.428 266.798 980.338 266.298 979.258C227.128 969.658 187.948 960.068 148.668 950.438C146.448 956.618 144.458 962.178 140.948 971.958H140.938ZM137.568 946.348C100.478 928.588 64.3379 911.288 28.1979 893.978C26.8179 895.218 25.4379 896.458 24.0579 897.698C30.7679 906.198 35.7979 917.598 44.5079 922.658C72.0479 938.678 100.958 952.338 130.058 967.268C133.638 957.278 135.618 951.748 137.568 946.328V946.348ZM705.268 230.208C703.448 283.998 748.238 310.888 768.828 351.018C755.918 306.678 741.328 263.268 705.268 230.208ZM163.698 38.0583C131.518 36.5983 61.4679 65.8483 36.2079 93.9383C80.4379 71.4183 132.538 79.8783 163.698 38.0583ZM562.788 128.758C568.778 135.818 572.458 144.038 578.548 146.658C606.648 158.738 635.418 169.248 662.748 179.858C644.158 139.478 609.208 126.328 562.798 128.758H562.788ZM230.088 25.2083C255.308 33.1183 281.538 41.9583 308.158 49.3683C317.328 51.9183 327.478 50.9183 337.188 51.5383C305.118 14.9083 268.028 7.68832 230.088 25.2083ZM374.038 145.518C373.828 144.188 373.628 142.858 373.418 141.528C337.818 143.398 302.228 145.258 264.308 147.248C268.048 158.988 270.618 167.068 273.018 174.628C308.048 164.538 341.048 155.028 374.038 145.518ZM558.838 252.538C530.138 226.558 503.758 202.668 477.368 178.778C476.558 179.678 475.748 180.578 474.938 181.478C494.638 210.208 514.348 238.928 534.788 268.738C541.708 264.078 548.458 259.528 558.838 252.538ZM308.968 14.6483C336.858 32.3883 360.578 55.6383 395.218 41.6783C385.888 14.9283 367.718 11.0383 308.968 14.6483ZM606.908 121.408C580.798 87.5183 550.058 75.4783 524.298 88.1483C543.208 119.898 575.358 119.158 606.908 121.408ZM466.688 187.298L463.698 189.658C475.098 220.138 486.498 250.628 498.178 281.828C507.008 279.078 514.798 276.648 525.818 273.218C505.268 243.358 485.988 215.328 466.698 187.288L466.688 187.298ZM276.398 184.058C283.368 194.028 288.258 201.048 293.098 207.968C322.428 190.918 350.278 174.728 378.128 158.528L376.858 155.138C344.148 164.558 311.438 173.978 276.398 184.058ZM373.248 131.548L373.608 128.948C345.278 124.128 317.008 118.838 288.578 114.638C267.818 111.568 265.268 114.788 267.378 136.828C302.668 135.068 337.958 133.308 373.248 131.558V131.548ZM564.598 244.418C568.078 234.878 582.518 227.188 569.228 218.348C543.118 200.988 515.398 186.058 488.338 170.128C487.718 171.128 487.098 172.128 486.478 173.128C511.858 196.288 537.228 219.438 564.608 244.418H564.598ZM269.488 987.958C270.278 990.538 271.078 993.118 271.868 995.698C310.058 996.218 348.418 998.618 385.348 985.138C355.858 982.858 326.488 981.298 297.128 981.328C287.918 981.328 278.708 985.628 269.488 987.958ZM16.0479 901.528C17.3979 900.588 18.7579 899.648 20.1079 898.718C14.6679 891.128 10.1679 882.538 3.52791 876.198C-4.4621 868.568 -14.5121 863.158 -23.2421 856.238C-37.6221 844.838 -51.6621 832.998 -68.3621 819.278C-57.8521 844.108 -8.18208 891.298 16.0479 901.528ZM534.618 115.828C535.468 114.428 536.318 113.038 537.158 111.638C526.458 106.008 513.638 93.6183 505.508 96.1683C488.728 101.438 474.448 114.688 459.138 124.648C459.818 125.608 460.498 126.568 461.178 127.538C485.658 123.638 510.128 119.728 534.608 115.828H534.618ZM-169.372 652.368C-167.862 652.098 -166.352 651.818 -164.842 651.548C-157.012 612.118 -162.082 584.988 -187.472 552.578C-181.442 585.838 -175.402 619.108 -169.372 652.368ZM419.148 112.408C420.038 112.108 420.938 111.798 421.828 111.498C419.108 100.888 416.778 90.1583 413.608 79.6883C405.118 51.6283 399.208 48.6383 369.928 56.6783C386.338 75.2583 402.738 93.8283 419.148 112.408ZM572.668 918.358C598.328 896.468 623.998 874.578 649.658 852.688C612.478 861.118 584.728 880.558 572.668 918.358ZM398.088 20.0583C406.398 54.6483 435.678 47.0183 456.818 56.1183L463.418 37.7183C441.328 31.7483 420.428 26.0983 398.088 20.0583ZM446.858 121.908C464.368 109.348 480.358 97.8883 498.048 85.1983C485.628 79.3883 475.368 74.5883 463.648 69.0983C457.678 85.7383 452.558 99.8483 447.608 114.028C446.948 115.908 447.188 118.098 446.858 121.918V121.908ZM474.878 41.7583C472.538 46.3883 471.058 48.6983 470.188 51.2183C469.318 53.7383 469.048 56.4683 468.568 58.8283C509.628 82.5683 515.268 83.4983 535.118 68.9583C515.128 59.9283 495.878 51.2383 474.878 41.7483V41.7583ZM433.958 117.278C440.768 98.2983 446.578 82.0883 452.818 64.6883C440.218 61.8983 429.718 59.5683 417.578 56.8783C423.318 78.0383 428.368 96.6683 433.958 117.278ZM368.448 117.808C368.758 116.808 369.068 115.808 369.378 114.808C344.818 105.998 320.498 96.3583 295.498 89.0583C290.298 87.5383 282.568 94.6683 275.998 97.8083C276.798 99.3383 277.598 100.878 278.388 102.408C308.408 107.538 338.418 112.678 368.438 117.808H368.448ZM577.728 210.028C583.058 195.288 577.288 188.448 565.298 184.378C551.588 179.718 538.238 174.028 524.558 169.278C515.848 166.248 506.828 164.118 497.948 161.588C497.768 162.438 497.598 163.298 497.418 164.148C523.828 179.238 550.238 194.318 577.738 210.028H577.728ZM792.648 430.188C771.508 469.028 787.118 501.788 791.548 534.948C793.198 534.888 794.858 534.828 796.508 534.768C795.278 501.488 794.048 468.218 792.648 430.188ZM-29.2621 135.698C-54.2421 163.898 -76.3921 188.898 -98.5521 213.908C-97.2221 215.088 -95.8921 216.258 -94.5621 217.438C-70.7121 193.938 -36.9121 179.218 -29.2621 135.698ZM384.458 109.558C385.088 108.608 385.708 107.668 386.338 106.718C365.708 94.0583 345.588 80.3883 324.098 69.4283C318.598 66.6283 308.738 72.3783 300.888 74.1983C301.148 76.0883 301.418 77.9783 301.678 79.8683C329.268 89.7683 356.868 99.6583 384.458 109.558ZM489.958 143.938C490.148 144.858 490.328 145.788 490.518 146.708C518.288 156.668 546.058 166.628 573.828 176.588C574.938 175.268 576.048 173.948 577.148 172.628C572.538 166.518 568.818 156.238 563.158 155.028C539.068 149.868 514.408 147.398 489.958 143.938ZM336.208 62.4183C354.598 74.5483 372.988 86.6783 391.378 98.8183C374.828 83.7483 368.008 54.4083 336.208 62.4183ZM558.788 141.798C548.068 124.628 521.168 122.358 490.478 134.638C513.098 137.008 534.948 139.298 558.788 141.798Z" fill="url(#paint0_linear_86_3)" fill-opacity="0.5"/>
<defs>
<linearGradient id="paint0_linear_86_3" x1="302.854" y1="0" x2="302.854" y2="1006.28" gradientUnits="userSpaceOnUse">
<stop stop-color="#666666"/>
<stop offset="1"/>
</linearGradient>
</defs>
</svg>
