<svg width="996" height="80" viewBox="0 0 996 80" fill="none" xmlns="http://www.w3.org/2000/svg">
<path d="M20.4453 8.45312H30.7188L50.6016 64H41.8125L35.7578 47.2812H20.25L23.2188 39.0781H32.7891L25.6016 19.2344L9.35156 64H0.5625L20.4453 8.45312ZM56.8906 24.0781C56.8906 21.1875 57.6068 18.5703 59.0391 16.2266C60.4714 13.8568 62.3854 11.9688 64.7812 10.5625C67.1771 9.15625 69.8333 8.45312 72.75 8.45312H101.852V16.6562H72.75C70.6406 16.6562 68.8438 17.3854 67.3594 18.8438C65.875 20.276 65.1328 22.0208 65.1328 24.0781V48.5312C65.1328 50.5104 65.875 52.2161 67.3594 53.6484C68.8438 55.0547 70.6406 55.7578 72.75 55.7578H101.852V64H72.75C69.8333 64 67.1771 63.3099 64.7812 61.9297C62.3854 60.5495 60.4714 58.7005 59.0391 56.3828C57.6068 54.0391 56.8906 51.4609 56.8906 48.6484V24.0781ZM110.875 24.0781C110.875 21.1875 111.591 18.5703 113.023 16.2266C114.456 13.8568 116.37 11.9688 118.766 10.5625C121.161 9.15625 123.818 8.45312 126.734 8.45312H155.836V16.6562H126.734C124.625 16.6562 122.828 17.3854 121.344 18.8438C119.859 20.276 119.117 22.0208 119.117 24.0781V48.5312C119.117 50.5104 119.859 52.2161 121.344 53.6484C122.828 55.0547 124.625 55.7578 126.734 55.7578H155.836V64H126.734C123.818 64 121.161 63.3099 118.766 61.9297C116.37 60.5495 114.456 58.7005 113.023 56.3828C111.591 54.0391 110.875 51.4609 110.875 48.6484V24.0781ZM165.641 8.45312H208.727V16.6562H173.883V55.7578H208.727V64H165.641V8.45312ZM178.57 30.9922H208.727V39.1953H178.57V30.9922ZM218.141 21.8906C218.141 19.4167 218.753 17.1641 219.977 15.1328C221.227 13.1016 222.893 11.487 224.977 10.2891C227.086 9.0651 229.404 8.45312 231.93 8.45312H260.68V16.6562H231.93C230.419 16.6562 229.117 17.1901 228.023 18.2578C226.93 19.3255 226.383 20.6146 226.383 22.125V25.9531C226.383 27.3333 226.93 28.5182 228.023 29.5078C229.117 30.4974 230.419 30.9922 231.93 30.9922H249.625C252.177 30.9922 254.495 31.6042 256.578 32.8281C258.661 34.026 260.315 35.6536 261.539 37.7109C262.789 39.7422 263.414 41.9948 263.414 44.4688V50.5234C263.414 52.9974 262.789 55.263 261.539 57.3203C260.315 59.3516 258.661 60.9792 256.578 62.2031C254.495 63.401 252.177 64 249.625 64H218.18V55.7578H249.625C251.161 55.7578 252.464 55.25 253.531 54.2344C254.625 53.1927 255.172 51.9427 255.172 50.4844V44.5078C255.172 43.0495 254.625 41.7995 253.531 40.7578C252.464 39.7161 251.161 39.1953 249.625 39.1953H231.93C229.404 39.1953 227.086 38.6094 224.977 37.4375C222.893 36.2396 221.227 34.638 219.977 32.6328C218.753 30.6276 218.141 28.4141 218.141 25.9922V21.8906ZM272.828 21.8906C272.828 19.4167 273.44 17.1641 274.664 15.1328C275.914 13.1016 277.581 11.487 279.664 10.2891C281.773 9.0651 284.091 8.45312 286.617 8.45312H315.367V16.6562H286.617C285.107 16.6562 283.805 17.1901 282.711 18.2578C281.617 19.3255 281.07 20.6146 281.07 22.125V25.9531C281.07 27.3333 281.617 28.5182 282.711 29.5078C283.805 30.4974 285.107 30.9922 286.617 30.9922H304.312C306.865 30.9922 309.182 31.6042 311.266 32.8281C313.349 34.026 315.003 35.6536 316.227 37.7109C317.477 39.7422 318.102 41.9948 318.102 44.4688V50.5234C318.102 52.9974 317.477 55.263 316.227 57.3203C315.003 59.3516 313.349 60.9792 311.266 62.2031C309.182 63.401 306.865 64 304.312 64H272.867V55.7578H304.312C305.849 55.7578 307.151 55.25 308.219 54.2344C309.312 53.1927 309.859 51.9427 309.859 50.4844V44.5078C309.859 43.0495 309.312 41.7995 308.219 40.7578C307.151 39.7161 305.849 39.1953 304.312 39.1953H286.617C284.091 39.1953 281.773 38.6094 279.664 37.4375C277.581 36.2396 275.914 34.638 274.664 32.6328C273.44 30.6276 272.828 28.4141 272.828 25.9922V21.8906ZM351.734 8.45312H359.977V30.9531H364.078L386.109 8.45312H397.477L370.602 35.9141L399.156 64H387.633L362.398 39.1953H359.977V64H351.734V8.45312ZM406.188 8.45312H449.273V16.6562H414.43V55.7578H449.273V64H406.188V8.45312ZM419.117 30.9922H449.273V39.1953H419.117V30.9922ZM465.602 8.45312L480.836 29.5078L495.992 8.45312H505.992L485.055 37.4766V64H476.617V37.4766L455.562 8.45312H465.602ZM509.938 29.5078C509.938 28.1016 510.432 26.9036 511.422 25.9141C512.411 24.9245 513.609 24.4297 515.016 24.4297C516.448 24.4297 517.646 24.9245 518.609 25.9141C519.599 26.8776 520.094 28.0755 520.094 29.5078C520.094 30.9401 519.599 32.151 518.609 33.1406C517.646 34.1042 516.448 34.5859 515.016 34.5859C513.583 34.5859 512.372 34.1042 511.383 33.1406C510.419 32.151 509.938 30.9401 509.938 29.5078ZM509.938 59.3125C509.938 57.9062 510.432 56.7083 511.422 55.7188C512.411 54.7292 513.609 54.2344 515.016 54.2344C516.448 54.2344 517.646 54.7292 518.609 55.7188C519.599 56.6823 520.094 57.8802 520.094 59.3125C520.094 60.7448 519.599 61.9557 518.609 62.9453C517.646 63.9089 516.448 64.3906 515.016 64.3906C513.609 64.3906 512.411 63.8958 511.422 62.9062C510.432 61.9167 509.938 60.7188 509.938 59.3125ZM553.688 13.2188C553.688 9.91146 554.26 7.33333 555.406 5.48438C556.578 3.60938 558.57 2.29427 561.383 1.53906C564.221 0.757812 568.128 0.367188 573.102 0.367188V8.57031C570.081 8.57031 567.763 8.70052 566.148 8.96094C564.534 9.19531 563.427 9.65104 562.828 10.3281C562.229 10.9792 561.93 11.9427 561.93 13.2188V66.3828C561.93 67.6328 562.229 68.5833 562.828 69.2344C563.453 69.9115 564.573 70.3802 566.188 70.6406C567.802 70.901 570.107 71.0312 573.102 71.0312V79.2344C568.102 79.2344 564.195 78.8438 561.383 78.0625C558.57 77.3073 556.578 75.9922 555.406 74.1172C554.26 72.2682 553.688 69.6901 553.688 66.3828V13.2188ZM579.391 45.25C579.391 42.2292 580.094 40.0026 581.5 38.5703C582.906 37.138 585.419 36.0833 589.039 35.4062L609.742 31.4219C611.018 31.1875 612.073 30.5365 612.906 29.4688C613.74 28.375 614.156 27.125 614.156 25.7188V22.125C614.156 20.6146 613.622 19.3255 612.555 18.2578C611.513 17.1901 610.237 16.6562 608.727 16.6562H582.164V8.45312H608.727C611.253 8.45312 613.544 9.0651 615.602 10.2891C617.659 11.487 619.299 13.1016 620.523 15.1328C621.773 17.1641 622.398 19.4167 622.398 21.8906V25.875C622.398 28.0625 621.982 30.0938 621.148 31.9688C620.315 33.8438 619.169 35.4193 617.711 36.6953C616.279 37.9453 614.638 38.7526 612.789 39.1172L589.547 43.5312C588.792 43.6875 588.271 43.8828 587.984 44.1172C587.724 44.3255 587.594 44.6901 587.594 45.2109V55.7969H622.359V64H579.391V45.25ZM631.812 55.7578H660.914C662.424 55.7578 663.701 55.237 664.742 54.1953C665.81 53.1276 666.344 51.8646 666.344 50.4062V45.1719C666.344 43.4792 665.628 42.0339 664.195 40.8359C662.763 39.638 661.044 39.0391 659.039 39.0391H646.383V30.8359H659.039C660.758 30.8359 662.216 30.237 663.414 29.0391C664.638 27.8411 665.25 26.4089 665.25 24.7422V22.125C665.25 20.6146 664.716 19.3255 663.648 18.2578C662.607 17.1901 661.331 16.6562 659.82 16.6562H631.812V8.45312H659.82C662.346 8.45312 664.638 9.0651 666.695 10.2891C668.779 11.513 670.432 13.1667 671.656 15.25C672.88 17.3073 673.492 19.599 673.492 22.125V24.8984C673.492 29.013 671.93 32.2161 668.805 34.5078C670.81 35.7057 672.268 37.1641 673.18 38.8828C674.091 40.5755 674.547 42.6979 674.547 45.25V50.4844C674.547 52.9844 673.935 55.263 672.711 57.3203C671.487 59.3516 669.833 60.9792 667.75 62.2031C665.693 63.401 663.414 64 660.914 64H631.812V55.7578ZM692.164 49.4688C692.164 51.3698 692.659 52.8932 693.648 54.0391C694.638 55.1849 695.953 55.7578 697.594 55.7578H712.75C714.26 55.7578 715.549 55.237 716.617 54.1953C717.685 53.1536 718.219 51.8906 718.219 50.4062V42.7891C718.219 41.1224 717.685 39.7031 716.617 38.5312C715.576 37.3594 714.299 36.7734 712.789 36.7734H684.234V8.45312H724.391V16.6562H692.438V28.7656H712.828C715.328 28.7656 717.607 29.4036 719.664 30.6797C721.721 31.9557 723.362 33.6615 724.586 35.7969C725.81 37.9323 726.422 40.3021 726.422 42.9062V50.4844C726.422 52.9844 725.797 55.263 724.547 57.3203C723.323 59.3516 721.682 60.9792 719.625 62.2031C717.568 63.401 715.276 64 712.75 64H697.594C694.99 64 692.646 63.375 690.562 62.125C688.505 60.875 686.878 59.1693 685.68 57.0078C684.508 54.8464 683.922 52.3854 683.922 49.625L692.164 49.4688ZM735.797 8.45312H778.023V14.3906L747.984 64H738.492L767.203 16.6562H735.797V8.45312ZM789.195 8.45312H797.438V50.9922H789.195V8.45312ZM788.219 59.3125C788.219 57.9062 788.714 56.7083 789.703 55.7188C790.693 54.7292 791.891 54.2344 793.297 54.2344C794.729 54.2344 795.927 54.7292 796.891 55.7188C797.88 56.6823 798.375 57.8802 798.375 59.3125C798.375 60.7448 797.88 61.9557 796.891 62.9453C795.927 63.9089 794.729 64.3906 793.297 64.3906C791.891 64.3906 790.693 63.8958 789.703 62.9062C788.714 61.9167 788.219 60.7188 788.219 59.3125ZM809.312 23.8047C809.312 20.9661 810.003 18.388 811.383 16.0703C812.789 13.7526 814.651 11.9036 816.969 10.5234C819.312 9.14323 821.891 8.45312 824.703 8.45312H844.586C847.424 8.45312 850.003 9.13021 852.32 10.4844C854.638 11.8125 856.487 13.5964 857.867 15.8359C859.273 18.0755 859.977 20.5625 859.977 23.2969V35.4844C859.977 38.5573 859.195 41.2526 857.633 43.5703C856.096 45.862 853.935 47.6458 851.148 48.9219C848.362 50.1979 845.094 50.8359 841.344 50.8359V28.2969H832.633C831.122 28.2969 829.924 28.7135 829.039 29.5469C828.18 30.3802 827.75 31.526 827.75 32.9844V40.1328C827.75 41.3307 828.193 42.3073 829.078 43.0625C829.964 43.7917 831.096 44.1562 832.477 44.1562H836.656V50.8359H832.633C830.419 50.8359 828.44 50.3672 826.695 49.4297C824.951 48.4922 823.57 47.2161 822.555 45.6016C821.565 43.987 821.07 42.1641 821.07 40.1328V32.2031C821.07 30.1979 821.565 28.401 822.555 26.8125C823.57 25.1979 824.938 23.9219 826.656 22.9844C828.401 22.0469 830.341 21.5781 832.477 21.5781H847.984V43.0234C849.573 42.3464 850.862 41.2917 851.852 39.8594C852.841 38.4271 853.336 36.9297 853.336 35.3672V23.4141C853.336 21.9557 852.919 20.6016 852.086 19.3516C851.279 18.1016 850.211 17.0859 848.883 16.3047C847.581 15.5234 846.174 15.1328 844.664 15.1328H824.781C823.245 15.1328 821.799 15.5495 820.445 16.3828C819.117 17.1901 818.036 18.2578 817.203 19.5859C816.396 20.9141 815.992 22.3594 815.992 23.9219V48.6094C815.992 51.1354 816.656 53.2188 817.984 54.8594C819.339 56.5 821.07 57.3203 823.18 57.3203H836.656V64H822.984C820.354 64 817.997 63.3359 815.914 62.0078C813.857 60.6797 812.242 58.8568 811.07 56.5391C809.898 54.2214 809.312 51.5781 809.312 48.6094V23.8047ZM870.68 37.4375H879.352L879.703 32.4375H871.031L871.578 25.0547H880.25L881.383 8.45312H888.766L887.594 25.0547H897.281L898.453 8.45312H905.797L904.625 25.0547H913.297L912.711 32.4375H904.078L903.766 37.4375H912.359L911.852 44.7812H903.219L901.891 64H894.547L895.875 44.7812H886.188L884.859 64H877.477L878.844 44.7812H870.172L870.68 37.4375ZM896.422 37.4375L896.734 32.4375H887.086L886.695 37.4375H896.422ZM923.453 21.8906C923.453 19.3906 924.065 17.125 925.289 15.0938C926.539 13.0625 928.206 11.4479 930.289 10.25C932.398 9.05208 934.716 8.45312 937.242 8.45312H942.398V4.03906H949.664V8.45312H965.953V16.6562H949.664V30.9922H954.938C957.49 30.9922 959.807 31.6042 961.891 32.8281C963.974 34.026 965.628 35.6406 966.852 37.6719C968.102 39.7031 968.727 41.9688 968.727 44.4688V50.5234C968.727 53.0234 968.102 55.2891 966.852 57.3203C965.628 59.3516 963.974 60.9792 961.891 62.2031C959.807 63.401 957.49 64 954.938 64H949.664V68.4141H942.398V64H923.492V55.7578H942.398V39.1953H937.242C934.69 39.1953 932.372 38.6094 930.289 37.4375C928.206 36.2396 926.539 34.638 925.289 32.6328C924.065 30.6276 923.453 28.4141 923.453 25.9922V21.8906ZM931.695 25.9531C931.695 27.3594 932.229 28.5573 933.297 29.5469C934.391 30.5104 935.706 30.9922 937.242 30.9922H942.398V16.6562H937.242C935.706 16.6562 934.391 17.1901 933.297 18.2578C932.229 19.2995 931.695 20.5885 931.695 22.125V25.9531ZM954.938 55.7578C956.474 55.7578 957.776 55.25 958.844 54.2344C959.938 53.2188 960.484 51.9688 960.484 50.4844V44.4688C960.484 43.0104 959.938 41.7734 958.844 40.7578C957.776 39.7161 956.474 39.1953 954.938 39.1953H949.664V55.7578H954.938ZM975.797 71.1484C978.844 71.1484 981.174 71.0182 982.789 70.7578C984.43 70.4974 985.549 70.0286 986.148 69.3516C986.773 68.6745 987.086 67.7109 987.086 66.4609V13.1016C987.086 11.8255 986.773 10.862 986.148 10.2109C985.549 9.53385 984.443 9.07812 982.828 8.84375C981.214 8.58333 978.87 8.45312 975.797 8.45312V0.328125C980.823 0.328125 984.742 0.705729 987.555 1.46094C990.367 2.21615 992.346 3.51823 993.492 5.36719C994.638 7.21615 995.211 9.79427 995.211 13.1016V66.4609C995.211 69.7682 994.638 72.3464 993.492 74.1953C992.372 76.0703 990.406 77.3724 987.594 78.1016C984.781 78.8568 980.849 79.2344 975.797 79.2344V71.1484Z" fill="white"/>
</svg>
