<svg width="521" height="57" viewBox="0 0 521 57" fill="none" xmlns="http://www.w3.org/2000/svg">
<path d="M20.4453 0.453125H30.7188L50.6016 56H41.8125L35.7578 39.2812H20.25L23.2188 31.0781H32.7891L25.6016 11.2344L9.35156 56H0.5625L20.4453 0.453125ZM56.8906 16.0781C56.8906 13.1875 57.6068 10.5703 59.0391 8.22656C60.4714 5.85677 62.3854 3.96875 64.7812 2.5625C67.1771 1.15625 69.8333 0.453125 72.75 0.453125H101.852V8.65625H72.75C70.6406 8.65625 68.8438 9.38542 67.3594 10.8438C65.875 12.276 65.1328 14.0208 65.1328 16.0781V40.5312C65.1328 42.5104 65.875 44.2161 67.3594 45.6484C68.8438 47.0547 70.6406 47.7578 72.75 47.7578H101.852V56H72.75C69.8333 56 67.1771 55.3099 64.7812 53.9297C62.3854 52.5495 60.4714 50.7005 59.0391 48.3828C57.6068 46.0391 56.8906 43.4609 56.8906 40.6484V16.0781ZM110.875 16.0781C110.875 13.1875 111.591 10.5703 113.023 8.22656C114.456 5.85677 116.37 3.96875 118.766 2.5625C121.161 1.15625 123.818 0.453125 126.734 0.453125H155.836V8.65625H126.734C124.625 8.65625 122.828 9.38542 121.344 10.8438C119.859 12.276 119.117 14.0208 119.117 16.0781V40.5312C119.117 42.5104 119.859 44.2161 121.344 45.6484C122.828 47.0547 124.625 47.7578 126.734 47.7578H155.836V56H126.734C123.818 56 121.161 55.3099 118.766 53.9297C116.37 52.5495 114.456 50.7005 113.023 48.3828C111.591 46.0391 110.875 43.4609 110.875 40.6484V16.0781ZM165.641 0.453125H208.727V8.65625H173.883V47.7578H208.727V56H165.641V0.453125ZM178.57 22.9922H208.727V31.1953H178.57V22.9922ZM218.141 13.8906C218.141 11.4167 218.753 9.16406 219.977 7.13281C221.227 5.10156 222.893 3.48698 224.977 2.28906C227.086 1.0651 229.404 0.453125 231.93 0.453125H260.68V8.65625H231.93C230.419 8.65625 229.117 9.1901 228.023 10.2578C226.93 11.3255 226.383 12.6146 226.383 14.125V17.9531C226.383 19.3333 226.93 20.5182 228.023 21.5078C229.117 22.4974 230.419 22.9922 231.93 22.9922H249.625C252.177 22.9922 254.495 23.6042 256.578 24.8281C258.661 26.026 260.315 27.6536 261.539 29.7109C262.789 31.7422 263.414 33.9948 263.414 36.4688V42.5234C263.414 44.9974 262.789 47.263 261.539 49.3203C260.315 51.3516 258.661 52.9792 256.578 54.2031C254.495 55.401 252.177 56 249.625 56H218.18V47.7578H249.625C251.161 47.7578 252.464 47.25 253.531 46.2344C254.625 45.1927 255.172 43.9427 255.172 42.4844V36.5078C255.172 35.0495 254.625 33.7995 253.531 32.7578C252.464 31.7161 251.161 31.1953 249.625 31.1953H231.93C229.404 31.1953 227.086 30.6094 224.977 29.4375C222.893 28.2396 221.227 26.638 219.977 24.6328C218.753 22.6276 218.141 20.4141 218.141 17.9922V13.8906ZM272.828 13.8906C272.828 11.4167 273.44 9.16406 274.664 7.13281C275.914 5.10156 277.581 3.48698 279.664 2.28906C281.773 1.0651 284.091 0.453125 286.617 0.453125H315.367V8.65625H286.617C285.107 8.65625 283.805 9.1901 282.711 10.2578C281.617 11.3255 281.07 12.6146 281.07 14.125V17.9531C281.07 19.3333 281.617 20.5182 282.711 21.5078C283.805 22.4974 285.107 22.9922 286.617 22.9922H304.312C306.865 22.9922 309.182 23.6042 311.266 24.8281C313.349 26.026 315.003 27.6536 316.227 29.7109C317.477 31.7422 318.102 33.9948 318.102 36.4688V42.5234C318.102 44.9974 317.477 47.263 316.227 49.3203C315.003 51.3516 313.349 52.9792 311.266 54.2031C309.182 55.401 306.865 56 304.312 56H272.867V47.7578H304.312C305.849 47.7578 307.151 47.25 308.219 46.2344C309.312 45.1927 309.859 43.9427 309.859 42.4844V36.5078C309.859 35.0495 309.312 33.7995 308.219 32.7578C307.151 31.7161 305.849 31.1953 304.312 31.1953H286.617C284.091 31.1953 281.773 30.6094 279.664 29.4375C277.581 28.2396 275.914 26.638 274.664 24.6328C273.44 22.6276 272.828 20.4141 272.828 17.9922V13.8906ZM351.734 0.453125H359.977V22.9531H364.078L386.109 0.453125H397.477L370.602 27.9141L399.156 56H387.633L362.398 31.1953H359.977V56H351.734V0.453125ZM406.188 0.453125H449.273V8.65625H414.43V47.7578H449.273V56H406.188V0.453125ZM419.117 22.9922H449.273V31.1953H419.117V22.9922ZM465.602 0.453125L480.836 21.5078L495.992 0.453125H505.992L485.055 29.4766V56H476.617V29.4766L455.562 0.453125H465.602ZM509.938 21.5078C509.938 20.1016 510.432 18.9036 511.422 17.9141C512.411 16.9245 513.609 16.4297 515.016 16.4297C516.448 16.4297 517.646 16.9245 518.609 17.9141C519.599 18.8776 520.094 20.0755 520.094 21.5078C520.094 22.9401 519.599 24.151 518.609 25.1406C517.646 26.1042 516.448 26.5859 515.016 26.5859C513.583 26.5859 512.372 26.1042 511.383 25.1406C510.419 24.151 509.938 22.9401 509.938 21.5078ZM509.938 51.3125C509.938 49.9062 510.432 48.7083 511.422 47.7188C512.411 46.7292 513.609 46.2344 515.016 46.2344C516.448 46.2344 517.646 46.7292 518.609 47.7188C519.599 48.6823 520.094 49.8802 520.094 51.3125C520.094 52.7448 519.599 53.9557 518.609 54.9453C517.646 55.9089 516.448 56.3906 515.016 56.3906C513.609 56.3906 512.411 55.8958 511.422 54.9062C510.432 53.9167 509.938 52.7188 509.938 51.3125Z" fill="white"/>
</svg>
