<svg width="360" height="500" viewBox="0 0 360 500" fill="none" xmlns="http://www.w3.org/2000/svg">
<path fill-rule="evenodd" clip-rule="evenodd" d="M285 143.209C285 171.753 281.074 191.218 275.488 204.724H83.5124C77.9261 191.218 74 171.753 74 143.209C74 86.8043 120.633 40 179.5 40C238.367 40 285 86.8043 285 143.209ZM20 204.724H41.3109C36.5672 187.801 34 167.507 34 143.209C34 64.1167 99.1426 0 179.5 0C259.857 0 325 64.1167 325 143.209C325 167.507 322.433 187.801 317.689 204.724H340C351.046 204.724 360 213.679 360 224.724V480C360 491.046 351.046 500 340 500H0V224.724C0 213.679 8.95431 204.724 20 204.724ZM225 321.85C225 335.437 218.785 347.594 209 355.719V421.798C209 426.447 206.939 430.858 203.373 433.841C200.548 436.205 196.982 437.5 193.298 437.5H165.262C161.549 437.5 157.962 436.146 155.175 433.692C151.885 430.794 150 426.622 150 422.238V354.864C140.794 346.754 135 334.968 135 321.85C135 297.389 155.147 277.559 180 277.559C204.853 277.559 225 297.389 225 321.85Z" fill="white"/>
</svg>
