<svg width="934" height="298" viewBox="0 0 934 298" fill="none" xmlns="http://www.w3.org/2000/svg">
<path d="M265.812 21.9453C265.812 20.7865 266.236 19.8034 267.082 18.9961C267.928 18.1758 268.944 17.7656 270.129 17.7656H278.566C279.647 17.7656 280.624 18.0326 281.496 18.5664C282.382 19.0872 283.085 19.7969 283.605 20.6953C284.139 21.5807 284.406 22.5638 284.406 23.6445V24.2109C284.406 25.2786 284.139 26.2552 283.605 27.1406C283.085 28.013 282.382 28.7161 281.496 29.25C280.624 29.7708 279.647 30.0312 278.566 30.0312H272.277V25.9297H278.605C279.074 25.9297 279.471 25.7604 279.797 25.4219C280.135 25.0833 280.305 24.6732 280.305 24.1914V23.6445C280.305 23.1497 280.135 22.7331 279.797 22.3945C279.471 22.056 279.074 21.8867 278.605 21.8867H269.934V32.2773C269.934 32.7201 270.083 33.0977 270.383 33.4102C270.682 33.7227 271.047 33.8789 271.477 33.8789H282.98V38H271.477C270.435 38 269.484 37.7461 268.625 37.2383C267.766 36.7174 267.082 36.0273 266.574 35.168C266.066 34.2956 265.812 33.3385 265.812 32.2969V21.9453ZM291.281 17.7656L296.691 32.043L302.062 17.7656H306.398L298.684 38H294.641L286.945 17.7656H291.281ZM309.133 21.9453C309.133 20.7865 309.556 19.8034 310.402 18.9961C311.249 18.1758 312.264 17.7656 313.449 17.7656H321.887C322.967 17.7656 323.944 18.0326 324.816 18.5664C325.702 19.0872 326.405 19.7969 326.926 20.6953C327.46 21.5807 327.727 22.5638 327.727 23.6445V24.2109C327.727 25.2786 327.46 26.2552 326.926 27.1406C326.405 28.013 325.702 28.7161 324.816 29.25C323.944 29.7708 322.967 30.0312 321.887 30.0312H315.598V25.9297H321.926C322.395 25.9297 322.792 25.7604 323.117 25.4219C323.456 25.0833 323.625 24.6732 323.625 24.1914V23.6445C323.625 23.1497 323.456 22.7331 323.117 22.3945C322.792 22.056 322.395 21.8867 321.926 21.8867H313.254V32.2773C313.254 32.7201 313.404 33.0977 313.703 33.4102C314.003 33.7227 314.367 33.8789 314.797 33.8789H326.301V38H314.797C313.755 38 312.805 37.7461 311.945 37.2383C311.086 36.7174 310.402 36.0273 309.895 35.168C309.387 34.2956 309.133 33.3385 309.133 32.2969V21.9453ZM332.219 23.4297C332.219 22.388 332.479 21.4375 333 20.5781C333.534 19.7188 334.237 19.0352 335.109 18.5273C335.995 18.0195 336.971 17.7656 338.039 17.7656H342.551V21.8672H338.039C337.57 21.8672 337.167 22.0299 336.828 22.3555C336.503 22.668 336.34 23.0521 336.34 23.5078V38H332.219V23.4297ZM349.484 17.7656L354.738 31.7891L360.109 17.7656H364.66L353.918 45.6172H349.406L352.551 37.3359L345.109 17.7656H349.484ZM378.547 25.0312C378.547 23.6901 378.872 22.4727 379.523 21.3789C380.188 20.2852 381.073 19.4128 382.18 18.7617C383.286 18.0977 384.51 17.7656 385.852 17.7656H393.02C394.152 17.7656 395.122 18.1693 395.93 18.9766C396.737 19.7839 397.141 20.7539 397.141 21.8867V38.2344C397.141 39.5755 396.809 40.7995 396.145 41.9062C395.493 43.013 394.615 43.8919 393.508 44.543C392.401 45.207 391.177 45.5391 389.836 45.5391H379.855V41.418H389.777C390.676 41.418 391.438 41.1055 392.062 40.4805C392.701 39.8685 393.02 39.1263 393.02 38.2539V21.8867H385.852C384.979 21.8867 384.23 22.1992 383.605 22.8242C382.98 23.4362 382.668 24.1849 382.668 25.0703V30.6758C382.668 31.5482 382.98 32.3034 383.605 32.9414C384.23 33.5664 384.979 33.8789 385.852 33.8789H390.676V38H385.852C384.51 38 383.286 37.6745 382.18 37.0234C381.073 36.3594 380.188 35.4805 379.523 34.3867C378.872 33.2799 378.547 32.056 378.547 30.7148V25.0312ZM401.828 17.7656H405.949V30.6367C405.949 31.5482 406.262 32.3229 406.887 32.9609C407.512 33.599 408.26 33.918 409.133 33.918H416.301V17.7656H420.422V33.8984C420.422 35.0312 420.018 36.0013 419.211 36.8086C418.404 37.6029 417.421 38 416.262 38H409.133C407.792 38 406.568 37.6745 405.461 37.0234C404.354 36.3594 403.469 35.474 402.805 34.3672C402.154 33.2604 401.828 32.0365 401.828 30.6953V17.7656ZM425.109 21.9453C425.109 20.7865 425.533 19.8034 426.379 18.9961C427.225 18.1758 428.241 17.7656 429.426 17.7656H437.863C438.944 17.7656 439.921 18.0326 440.793 18.5664C441.678 19.0872 442.382 19.7969 442.902 20.6953C443.436 21.5807 443.703 22.5638 443.703 23.6445V24.2109C443.703 25.2786 443.436 26.2552 442.902 27.1406C442.382 28.013 441.678 28.7161 440.793 29.25C439.921 29.7708 438.944 30.0312 437.863 30.0312H431.574V25.9297H437.902C438.371 25.9297 438.768 25.7604 439.094 25.4219C439.432 25.0833 439.602 24.6732 439.602 24.1914V23.6445C439.602 23.1497 439.432 22.7331 439.094 22.3945C438.768 22.056 438.371 21.8867 437.902 21.8867H429.23V32.2773C429.23 32.7201 429.38 33.0977 429.68 33.4102C429.979 33.7227 430.344 33.8789 430.773 33.8789H442.277V38H430.773C429.732 38 428.781 37.7461 427.922 37.2383C427.062 36.7174 426.379 36.0273 425.871 35.168C425.363 34.2956 425.109 33.3385 425.109 32.2969V21.9453ZM447.805 23.4492C447.805 22.3945 448.065 21.4375 448.586 20.5781C449.12 19.7188 449.823 19.0352 450.695 18.5273C451.581 18.0195 452.557 17.7656 453.625 17.7656H465.5V21.8867H453.625C453.156 21.8867 452.753 22.043 452.414 22.3555C452.089 22.6549 451.926 23.0195 451.926 23.4492V23.9375C451.926 24.3802 452.089 24.7578 452.414 25.0703C452.753 25.3828 453.156 25.5391 453.625 25.5391H461.008C462.076 25.5391 463.046 25.7995 463.918 26.3203C464.803 26.8281 465.507 27.5117 466.027 28.3711C466.548 29.2305 466.809 30.1875 466.809 31.2422V32.2969C466.809 33.3385 466.548 34.2956 466.027 35.168C465.507 36.0273 464.803 36.7174 463.918 37.2383C463.046 37.7461 462.076 38 461.008 38H448.723V33.8789H461.008C461.477 33.8789 461.874 33.7227 462.199 33.4102C462.538 33.0977 462.707 32.7201 462.707 32.2773V31.2617C462.707 30.806 462.538 30.4219 462.199 30.1094C461.874 29.7969 461.477 29.6406 461.008 29.6406H453.625C452.557 29.6406 451.581 29.3867 450.695 28.8789C449.823 28.3581 449.12 27.668 448.586 26.8086C448.065 25.9362 447.805 24.9792 447.805 23.9375V23.4492ZM470.93 23.4492C470.93 22.3945 471.19 21.4375 471.711 20.5781C472.245 19.7188 472.948 19.0352 473.82 18.5273C474.706 18.0195 475.682 17.7656 476.75 17.7656H488.625V21.8867H476.75C476.281 21.8867 475.878 22.043 475.539 22.3555C475.214 22.6549 475.051 23.0195 475.051 23.4492V23.9375C475.051 24.3802 475.214 24.7578 475.539 25.0703C475.878 25.3828 476.281 25.5391 476.75 25.5391H484.133C485.201 25.5391 486.171 25.7995 487.043 26.3203C487.928 26.8281 488.632 27.5117 489.152 28.3711C489.673 29.2305 489.934 30.1875 489.934 31.2422V32.2969C489.934 33.3385 489.673 34.2956 489.152 35.168C488.632 36.0273 487.928 36.7174 487.043 37.2383C486.171 37.7461 485.201 38 484.133 38H471.848V33.8789H484.133C484.602 33.8789 484.999 33.7227 485.324 33.4102C485.663 33.0977 485.832 32.7201 485.832 32.2773V31.2617C485.832 30.806 485.663 30.4219 485.324 30.1094C484.999 29.7969 484.602 29.6406 484.133 29.6406H476.75C475.682 29.6406 474.706 29.3867 473.82 28.8789C472.948 28.3581 472.245 27.668 471.711 26.8086C471.19 25.9362 470.93 24.9792 470.93 23.9375V23.4492ZM505.695 12.2578C505.695 11.5547 505.943 10.9557 506.438 10.4609C506.932 9.96615 507.531 9.71875 508.234 9.71875C508.938 9.71875 509.536 9.96615 510.031 10.4609C510.526 10.9557 510.773 11.5547 510.773 12.2578C510.773 12.9609 510.526 13.5599 510.031 14.0547C509.536 14.5495 508.938 14.7969 508.234 14.7969C507.531 14.7969 506.932 14.5495 506.438 14.0547C505.943 13.5599 505.695 12.9609 505.695 12.2578ZM506.164 17.7656H510.305V38H506.164V17.7656ZM514.797 23.4492C514.797 22.3945 515.057 21.4375 515.578 20.5781C516.112 19.7188 516.815 19.0352 517.688 18.5273C518.573 18.0195 519.549 17.7656 520.617 17.7656H532.492V21.8867H520.617C520.148 21.8867 519.745 22.043 519.406 22.3555C519.081 22.6549 518.918 23.0195 518.918 23.4492V23.9375C518.918 24.3802 519.081 24.7578 519.406 25.0703C519.745 25.3828 520.148 25.5391 520.617 25.5391H528C529.068 25.5391 530.038 25.7995 530.91 26.3203C531.796 26.8281 532.499 27.5117 533.02 28.3711C533.54 29.2305 533.801 30.1875 533.801 31.2422V32.2969C533.801 33.3385 533.54 34.2956 533.02 35.168C532.499 36.0273 531.796 36.7174 530.91 37.2383C530.038 37.7461 529.068 38 528 38H515.715V33.8789H528C528.469 33.8789 528.866 33.7227 529.191 33.4102C529.53 33.0977 529.699 32.7201 529.699 32.2773V31.2617C529.699 30.806 529.53 30.4219 529.191 30.1094C528.866 29.7969 528.469 29.6406 528 29.6406H520.617C519.549 29.6406 518.573 29.3867 517.688 28.8789C516.815 28.3581 516.112 27.668 515.578 26.8086C515.057 25.9362 514.797 24.9792 514.797 23.9375V23.4492ZM549.836 25.0312C549.836 23.6901 550.161 22.4727 550.812 21.3789C551.477 20.2852 552.362 19.4128 553.469 18.7617C554.576 18.0977 555.799 17.7656 557.141 17.7656H568.43V38H564.309V21.8867H557.141C556.268 21.8867 555.52 22.1992 554.895 22.8242C554.27 23.4362 553.957 24.1849 553.957 25.0703V30.6562C553.957 31.5417 554.27 32.3034 554.895 32.9414C555.52 33.5664 556.268 33.8789 557.141 33.8789H561.965V38H557.141C555.799 38 554.576 37.6745 553.469 37.0234C552.362 36.3594 551.477 35.474 550.812 34.3672C550.161 33.2604 549.836 32.0365 549.836 30.6953V25.0312ZM160.148 74.0312C160.148 72.6901 160.474 71.4727 161.125 70.3789C161.789 69.2852 162.674 68.4128 163.781 67.7617C164.888 67.0977 166.112 66.7656 167.453 66.7656H174.621C175.754 66.7656 176.724 67.1693 177.531 67.9766C178.339 68.7839 178.742 69.7539 178.742 70.8867V87.2344C178.742 88.5755 178.41 89.7995 177.746 90.9062C177.095 92.013 176.216 92.8919 175.109 93.543C174.003 94.207 172.779 94.5391 171.438 94.5391H161.457V90.418H171.379C172.277 90.418 173.039 90.1055 173.664 89.4805C174.302 88.8685 174.621 88.1263 174.621 87.2539V70.8867H167.453C166.581 70.8867 165.832 71.1992 165.207 71.8242C164.582 72.4362 164.27 73.1849 164.27 74.0703V79.6758C164.27 80.5482 164.582 81.3034 165.207 81.9414C165.832 82.5664 166.581 82.8789 167.453 82.8789H172.277V87H167.453C166.112 87 164.888 86.6745 163.781 86.0234C162.674 85.3594 161.789 84.4805 161.125 83.3867C160.474 82.2799 160.148 81.056 160.148 79.7148V74.0312ZM183.43 59.2266H187.551V87H183.43V59.2266ZM192.062 74.0703C192.062 72.7292 192.388 71.5052 193.039 70.3984C193.703 69.2917 194.589 68.4128 195.695 67.7617C196.802 67.0977 198.026 66.7656 199.367 66.7656H203.781C205.122 66.7656 206.346 67.0977 207.453 67.7617C208.56 68.4128 209.439 69.2917 210.09 70.3984C210.754 71.5052 211.086 72.7292 211.086 74.0703V79.6953C211.086 81.0365 210.754 82.2604 210.09 83.3672C209.439 84.474 208.56 85.3594 207.453 86.0234C206.346 86.6745 205.122 87 203.781 87H199.367C198.026 87 196.802 86.6745 195.695 86.0234C194.589 85.3594 193.703 84.474 193.039 83.3672C192.388 82.2604 192.062 81.0365 192.062 79.6953V74.0703ZM196.184 79.6562C196.184 80.5417 196.496 81.3034 197.121 81.9414C197.746 82.5664 198.495 82.8789 199.367 82.8789H203.781C204.667 82.8789 205.415 82.5664 206.027 81.9414C206.652 81.3034 206.965 80.5417 206.965 79.6562V74.1094C206.965 73.224 206.652 72.4688 206.027 71.8438C205.415 71.2057 204.667 70.8867 203.781 70.8867H199.367C198.495 70.8867 197.746 71.2057 197.121 71.8438C196.496 72.4688 196.184 73.224 196.184 74.1094V79.6562ZM215.383 59.2266H219.504V82.8789H226.672C227.557 82.8789 228.306 82.5664 228.918 81.9414C229.543 81.3164 229.855 80.5677 229.855 79.6953V74.1094C229.855 73.224 229.543 72.4688 228.918 71.8438C228.306 71.2057 227.557 70.8867 226.672 70.8867H221.848V66.7656H226.672C228.013 66.7656 229.237 67.0977 230.344 67.7617C231.451 68.4128 232.329 69.2917 232.98 70.3984C233.645 71.5052 233.977 72.7292 233.977 74.0703V79.7344C233.977 81.0625 233.645 82.2799 232.98 83.3867C232.329 84.4805 231.451 85.3594 230.344 86.0234C229.237 86.6745 228.013 87 226.672 87H219.504C218.371 87 217.401 86.5964 216.594 85.7891C215.786 84.9818 215.383 84.0117 215.383 82.8789V59.2266ZM238.469 74.0312C238.469 72.6901 238.794 71.4727 239.445 70.3789C240.109 69.2852 240.995 68.4128 242.102 67.7617C243.208 67.0977 244.432 66.7656 245.773 66.7656H257.062V87H252.941V70.8867H245.773C244.901 70.8867 244.152 71.1992 243.527 71.8242C242.902 72.4362 242.59 73.1849 242.59 74.0703V79.6562C242.59 80.5417 242.902 81.3034 243.527 81.9414C244.152 82.5664 244.901 82.8789 245.773 82.8789H250.598V87H245.773C244.432 87 243.208 86.6745 242.102 86.0234C240.995 85.3594 240.109 84.474 239.445 83.3672C238.794 82.2604 238.469 81.0365 238.469 79.6953V74.0312ZM261.75 59.2266H265.871V87H261.75V59.2266ZM282.102 74.0312C282.102 72.6901 282.427 71.4727 283.078 70.3789C283.742 69.2852 284.628 68.4128 285.734 67.7617C286.841 67.0977 288.065 66.7656 289.406 66.7656H300.695V87H296.574V70.8867H289.406C288.534 70.8867 287.785 71.1992 287.16 71.8242C286.535 72.4362 286.223 73.1849 286.223 74.0703V79.6562C286.223 80.5417 286.535 81.3034 287.16 81.9414C287.785 82.5664 288.534 82.8789 289.406 82.8789H294.23V87H289.406C288.065 87 286.841 86.6745 285.734 86.0234C284.628 85.3594 283.742 84.474 283.078 83.3672C282.427 82.2604 282.102 81.0365 282.102 79.6953V74.0312ZM305.188 74.0703C305.188 72.7292 305.513 71.5052 306.164 70.3984C306.828 69.2917 307.714 68.4128 308.82 67.7617C309.927 67.0977 311.151 66.7656 312.492 66.7656H317.316V70.8867H312.492C311.62 70.8867 310.871 71.2057 310.246 71.8438C309.621 72.4688 309.309 73.224 309.309 74.1094V79.6953C309.309 80.5677 309.621 81.3164 310.246 81.9414C310.871 82.5664 311.62 82.8789 312.492 82.8789H319.66V59.2266H323.781V82.8789C323.781 84.0117 323.378 84.9818 322.57 85.7891C321.763 86.5964 320.793 87 319.66 87H312.492C311.151 87 309.927 86.6745 308.82 86.0234C307.714 85.3594 306.828 84.4805 306.164 83.3867C305.513 82.2799 305.188 81.0625 305.188 79.7344V74.0703ZM331.242 66.7656L336.652 81.043L342.023 66.7656H346.359L338.645 87H334.602L326.906 66.7656H331.242ZM349.094 70.9453C349.094 69.7865 349.517 68.8034 350.363 67.9961C351.21 67.1758 352.225 66.7656 353.41 66.7656H361.848C362.928 66.7656 363.905 67.0326 364.777 67.5664C365.663 68.0872 366.366 68.7969 366.887 69.6953C367.421 70.5807 367.688 71.5638 367.688 72.6445V73.2109C367.688 74.2786 367.421 75.2552 366.887 76.1406C366.366 77.013 365.663 77.7161 364.777 78.25C363.905 78.7708 362.928 79.0312 361.848 79.0312H355.559V74.9297H361.887C362.355 74.9297 362.753 74.7604 363.078 74.4219C363.417 74.0833 363.586 73.6732 363.586 73.1914V72.6445C363.586 72.1497 363.417 71.7331 363.078 71.3945C362.753 71.056 362.355 70.8867 361.887 70.8867H353.215V81.2773C353.215 81.7201 353.365 82.0977 353.664 82.4102C353.964 82.7227 354.328 82.8789 354.758 82.8789H366.262V87H354.758C353.716 87 352.766 86.7461 351.906 86.2383C351.047 85.7174 350.363 85.0273 349.855 84.168C349.348 83.2956 349.094 82.3385 349.094 81.2969V70.9453ZM372.18 70.8672C372.18 69.7344 372.583 68.7708 373.391 67.9766C374.211 67.1693 375.194 66.7656 376.34 66.7656H383.469C384.81 66.7656 386.034 67.0977 387.141 67.7617C388.247 68.4128 389.126 69.2917 389.777 70.3984C390.441 71.5052 390.773 72.7292 390.773 74.0703V87H386.652V74.1289C386.652 73.2174 386.34 72.4427 385.715 71.8047C385.103 71.1667 384.354 70.8477 383.469 70.8477H376.301V87H372.18V70.8672ZM394.484 66.7656H397.121V59.2266H401.242V66.7656H407.473V70.8867H401.242V81.2578C401.242 81.7005 401.411 82.0846 401.75 82.4102C402.102 82.7227 402.518 82.8789 403 82.8789H407.473V87H402.941C401.874 87 400.897 86.7461 400.012 86.2383C399.139 85.7174 398.436 85.0273 397.902 84.168C397.382 83.2956 397.121 82.332 397.121 81.2773V70.8867H394.484V66.7656ZM411.203 66.7656H415.324V79.6367C415.324 80.5482 415.637 81.3229 416.262 81.9609C416.887 82.599 417.635 82.918 418.508 82.918H425.676V66.7656H429.797V82.8984C429.797 84.0312 429.393 85.0013 428.586 85.8086C427.779 86.6029 426.796 87 425.637 87H418.508C417.167 87 415.943 86.6745 414.836 86.0234C413.729 85.3594 412.844 84.474 412.18 83.3672C411.529 82.2604 411.203 81.0365 411.203 79.6953V66.7656ZM434.484 72.4297C434.484 71.388 434.745 70.4375 435.266 69.5781C435.799 68.7188 436.503 68.0352 437.375 67.5273C438.26 67.0195 439.237 66.7656 440.305 66.7656H444.816V70.8672H440.305C439.836 70.8672 439.432 71.0299 439.094 71.3555C438.768 71.668 438.605 72.0521 438.605 72.5078V87H434.484V72.4297ZM448.547 70.9453C448.547 69.7865 448.97 68.8034 449.816 67.9961C450.663 67.1758 451.678 66.7656 452.863 66.7656H461.301C462.382 66.7656 463.358 67.0326 464.23 67.5664C465.116 68.0872 465.819 68.7969 466.34 69.6953C466.874 70.5807 467.141 71.5638 467.141 72.6445V73.2109C467.141 74.2786 466.874 75.2552 466.34 76.1406C465.819 77.013 465.116 77.7161 464.23 78.25C463.358 78.7708 462.382 79.0312 461.301 79.0312H455.012V74.9297H461.34C461.809 74.9297 462.206 74.7604 462.531 74.4219C462.87 74.0833 463.039 73.6732 463.039 73.1914V72.6445C463.039 72.1497 462.87 71.7331 462.531 71.3945C462.206 71.056 461.809 70.8867 461.34 70.8867H452.668V81.2773C452.668 81.7201 452.818 82.0977 453.117 82.4102C453.417 82.7227 453.781 82.8789 454.211 82.8789H465.715V87H454.211C453.169 87 452.219 86.7461 451.359 86.2383C450.5 85.7174 449.816 85.0273 449.309 84.168C448.801 83.2956 448.547 82.3385 448.547 81.2969V70.9453ZM472.512 59.2266H476.633V80.4961H472.512V59.2266ZM472.023 84.6562C472.023 83.9531 472.271 83.3542 472.766 82.8594C473.26 82.3646 473.859 82.1172 474.562 82.1172C475.279 82.1172 475.878 82.3646 476.359 82.8594C476.854 83.3411 477.102 83.9401 477.102 84.6562C477.102 85.3724 476.854 85.9779 476.359 86.4727C475.878 86.9544 475.279 87.1953 474.562 87.1953C473.859 87.1953 473.26 86.9479 472.766 86.4531C472.271 85.9583 472.023 85.3594 472.023 84.6562Z" fill="white"/>
<g filter="url(#filter0_d_120_2)">
<path d="M109.12 173.8H120.48V229.8H110.08V220.36C105.813 223.773 100.8 226.387 95.04 228.2C89.3867 229.907 83.3067 230.76 76.8 230.76C66.7733 230.76 57.44 228.52 48.8 224.04C40.2667 219.56 33.3867 213.053 28.16 204.52C22.9333 195.987 20.32 185.853 20.32 174.12C20.32 163.24 22.88 153.48 28 144.84C33.12 136.093 40.16 129.267 49.12 124.36C58.08 119.347 68.2133 116.84 79.52 116.84C88.0533 116.84 95.8933 118.227 103.04 121C110.187 123.667 116.213 127.667 121.12 133L113.76 140.52C104.907 131.773 93.6533 127.4 80 127.4C70.9333 127.4 62.72 129.427 55.36 133.48C48.1067 137.427 42.4 142.973 38.24 150.12C34.08 157.267 32 165.267 32 174.12C32 183.613 34.08 191.88 38.24 198.92C42.5067 205.853 48.1067 211.187 55.04 214.92C62.08 218.547 69.6 220.36 77.6 220.36C83.4667 220.36 89.12 219.4 94.56 217.48C100.107 215.453 104.96 212.413 109.12 208.36V173.8ZM187.59 220.52C192.817 220.52 197.617 219.613 201.99 217.8C206.47 215.88 210.257 213.107 213.35 209.48L219.75 216.84C216.017 221.32 211.377 224.733 205.83 227.08C200.283 229.427 194.15 230.6 187.43 230.6C178.79 230.6 171.11 228.787 164.39 225.16C157.67 221.427 152.443 216.307 148.71 209.8C144.977 203.293 143.11 195.933 143.11 187.72C143.11 179.507 144.87 172.147 148.39 165.64C152.017 159.133 156.977 154.067 163.27 150.44C169.563 146.813 176.71 145 184.71 145C192.177 145 198.897 146.707 204.87 150.12C210.95 153.533 215.75 158.28 219.27 164.36C222.897 170.44 224.817 177.373 225.03 185.16L155.91 198.6C158.043 205.427 161.883 210.813 167.43 214.76C173.083 218.6 179.803 220.52 187.59 220.52ZM184.71 154.76C178.843 154.76 173.563 156.147 168.87 158.92C164.283 161.587 160.657 165.373 157.99 170.28C155.43 175.08 154.15 180.627 154.15 186.92C154.15 188.52 154.203 189.693 154.31 190.44L213.67 178.92C212.39 171.88 209.137 166.12 203.91 161.64C198.683 157.053 192.283 154.76 184.71 154.76ZM282.553 230.6C274.446 230.6 267.139 228.787 260.633 225.16C254.126 221.427 249.006 216.307 245.273 209.8C241.539 203.293 239.673 195.933 239.673 187.72C239.673 179.507 241.539 172.147 245.273 165.64C249.006 159.133 254.126 154.067 260.633 150.44C267.139 146.813 274.446 145 282.553 145C290.659 145 297.966 146.813 304.473 150.44C310.979 154.067 316.046 159.133 319.673 165.64C323.406 172.147 325.273 179.507 325.273 187.72C325.273 195.933 323.406 203.293 319.673 209.8C316.046 216.307 310.979 221.427 304.473 225.16C297.966 228.787 290.659 230.6 282.553 230.6ZM282.553 220.52C288.526 220.52 293.859 219.187 298.553 216.52C303.353 213.747 307.086 209.853 309.753 204.84C312.419 199.827 313.753 194.12 313.753 187.72C313.753 181.32 312.419 175.613 309.753 170.6C307.086 165.587 303.353 161.747 298.553 159.08C293.859 156.307 288.526 154.92 282.553 154.92C276.579 154.92 271.193 156.307 266.393 159.08C261.699 161.747 257.966 165.587 255.193 170.6C252.526 175.613 251.193 181.32 251.193 187.72C251.193 194.12 252.526 199.827 255.193 204.84C257.966 209.853 261.699 213.747 266.393 216.52C271.193 219.187 276.579 220.52 282.553 220.52ZM425.265 111.08V229.8H414.385V213.16C410.972 218.813 406.438 223.133 400.785 226.12C395.238 229.107 388.945 230.6 381.905 230.6C374.012 230.6 366.865 228.787 360.465 225.16C354.065 221.533 349.052 216.467 345.425 209.96C341.798 203.453 339.985 196.04 339.985 187.72C339.985 179.4 341.798 171.987 345.425 165.48C349.052 158.973 354.065 153.96 360.465 150.44C366.865 146.813 374.012 145 381.905 145C388.732 145 394.865 146.44 400.305 149.32C405.852 152.093 410.385 156.2 413.905 161.64V111.08H425.265ZM382.865 220.52C388.732 220.52 394.012 219.187 398.705 216.52C403.505 213.747 407.238 209.853 409.905 204.84C412.678 199.827 414.065 194.12 414.065 187.72C414.065 181.32 412.678 175.613 409.905 170.6C407.238 165.587 403.505 161.747 398.705 159.08C394.012 156.307 388.732 154.92 382.865 154.92C376.892 154.92 371.505 156.307 366.705 159.08C362.012 161.747 358.278 165.587 355.505 170.6C352.838 175.613 351.505 181.32 351.505 187.72C351.505 194.12 352.838 199.827 355.505 204.84C358.278 209.853 362.012 213.747 366.705 216.52C371.505 219.187 376.892 220.52 382.865 220.52ZM532.743 145.64V229.8H521.862V214.44C518.876 219.56 514.769 223.56 509.543 226.44C504.316 229.213 498.343 230.6 491.623 230.6C480.636 230.6 471.943 227.56 465.543 221.48C459.249 215.293 456.103 206.28 456.103 194.44V145.64H467.463V193.32C467.463 202.173 469.649 208.893 474.023 213.48C478.396 218.067 484.636 220.36 492.743 220.36C501.596 220.36 508.583 217.693 513.703 212.36C518.823 206.92 521.383 199.4 521.383 189.8V145.64H532.743ZM599.439 230.6C591.119 230.6 583.652 228.787 577.039 225.16C570.532 221.533 565.412 216.467 561.679 209.96C557.945 203.347 556.079 195.933 556.079 187.72C556.079 179.507 557.945 172.147 561.679 165.64C565.412 159.133 570.532 154.067 577.039 150.44C583.652 146.813 591.119 145 599.439 145C606.692 145 613.145 146.44 618.799 149.32C624.559 152.093 629.092 156.2 632.399 161.64L623.919 167.4C621.145 163.24 617.625 160.147 613.359 158.12C609.092 155.987 604.452 154.92 599.439 154.92C593.359 154.92 587.865 156.307 582.959 159.08C578.159 161.747 574.372 165.587 571.599 170.6C568.932 175.613 567.599 181.32 567.599 187.72C567.599 194.227 568.932 199.987 571.599 205C574.372 209.907 578.159 213.747 582.959 216.52C587.865 219.187 593.359 220.52 599.439 220.52C604.452 220.52 609.092 219.507 613.359 217.48C617.625 215.453 621.145 212.36 623.919 208.2L632.399 213.96C629.092 219.4 624.559 223.56 618.799 226.44C613.039 229.213 606.585 230.6 599.439 230.6ZM684.665 187.56L664.825 205.8V229.8H653.465V111.08H664.825V191.56L715.065 145.64H729.145L693.145 180.04L732.505 229.8H718.585L684.665 187.56Z" fill="url(#paint0_linear_120_2)"/>
<path d="M896.8 152.745C896.8 188.591 851.72 257.2 831.6 257.2C811.48 257.2 766.4 188.591 766.4 152.745C766.4 116.899 795.591 193.564 831.6 193.564C867.609 193.564 896.8 116.899 896.8 152.745Z" fill="white"/>
<circle cx="831.6" cy="152.8" r="45.2" fill="black" stroke="white" stroke-width="40"/>
<path d="M262.331 168.663L263.463 167.531L284.393 186.199L280.999 189.593L262.331 168.663Z" fill="white"/>
<path d="M301.787 208.261L302.919 207.129L284.251 186.199L280.857 189.593L301.787 208.261Z" fill="#FF0000"/>
<circle cx="282.554" cy="187.896" r="4" transform="rotate(-45 282.554 187.896)" fill="white"/>
</g>
<defs>
<filter id="filter0_d_120_2" x="0.32" y="87.6001" width="916.48" height="209.6" filterUnits="userSpaceOnUse" color-interpolation-filters="sRGB">
<feFlood flood-opacity="0" result="BackgroundImageFix"/>
<feColorMatrix in="SourceAlpha" type="matrix" values="0 0 0 0 0 0 0 0 0 0 0 0 0 0 0 0 0 0 127 0" result="hardAlpha"/>
<feOffset dy="20"/>
<feGaussianBlur stdDeviation="10"/>
<feComposite in2="hardAlpha" operator="out"/>
<feColorMatrix type="matrix" values="0 0 0 0 0 0 0 0 0 0 0 0 0 0 0 0 0 0 1 0"/>
<feBlend mode="normal" in2="BackgroundImageFix" result="effect1_dropShadow_120_2"/>
<feBlend mode="normal" in="SourceGraphic" in2="effect1_dropShadow_120_2" result="shape"/>
</filter>
<linearGradient id="paint0_linear_120_2" x1="12" y1="172.3" x2="734" y2="172.3" gradientUnits="userSpaceOnUse">
<stop stop-color="white"/>
<stop offset="1" stop-color="#D6BD00"/>
</linearGradient>
</defs>
</svg>
