<svg width="329" height="84" viewBox="0 0 329 84" fill="none" xmlns="http://www.w3.org/2000/svg">
<path d="M8.16679 0.559137H19.4754L43.505 33.3051L73.2644 0.559137H84.573L77.3112 83.5624H64.9479L70.3764 21.5142L47.5071 46.4969H37.2532L18.6967 21.5142L13.2682 83.5624H0.904946L8.16679 0.559137ZM98.9366 23.9075C99.3145 19.588 100.77 15.6772 103.303 12.1749C105.878 8.63376 109.133 5.81251 113.067 3.71116C117.001 1.60981 121.253 0.559137 125.823 0.559137H145.335C149.905 0.559137 153.973 1.60981 157.539 3.71116C161.145 5.81251 163.906 8.63376 165.822 12.1749C167.743 15.6772 168.514 19.588 168.136 23.9075L164.959 60.2141C164.585 64.4946 163.129 68.4054 160.593 71.9466C158.057 75.4878 154.802 78.309 150.829 80.4104C146.895 82.5117 142.643 83.5624 138.073 83.5624H118.561C113.991 83.5624 109.923 82.5117 106.356 80.4104C102.79 78.309 100.029 75.4878 98.0735 71.9466C96.1568 68.4054 95.3857 64.4946 95.7602 60.2141L98.9366 23.9075ZM108.118 60.2724C107.853 63.3077 108.836 65.915 111.067 68.0941C113.341 70.2344 116.196 71.3045 119.634 71.3045H139.145C142.622 71.3045 145.665 70.2344 148.274 68.0941C150.886 65.915 152.325 63.3077 152.591 60.2724L155.778 23.8491C156.043 20.8138 155.059 18.226 152.824 16.0858C150.593 13.9066 147.739 12.817 144.262 12.817H124.751C121.313 12.817 118.269 13.9066 115.617 16.0858C113.008 18.226 111.571 20.8138 111.305 23.8491L108.118 60.2724ZM191.624 0.559137L210.044 68.6195L240.315 0.559137H253.499L216.413 83.5624H201.003L178.44 0.559137H191.624ZM264.104 0.559137H328.733L327.661 12.817H275.395L270.283 71.2462H322.549L321.471 83.5624H256.842L264.104 0.559137ZM280.552 34.2391H325.787L324.714 46.4969H279.48L280.552 34.2391Z" fill="white"/>
</svg>
