<svg width="325" height="84" viewBox="0 0 325 84" fill="none" xmlns="http://www.w3.org/2000/svg">
<path d="M8.16679 0.559137H24.2215L54.7867 65.7593L60.491 0.559137H72.8543L65.5924 83.5624H49.5378L18.8959 19.2378L13.2682 83.5624H0.904946L8.16679 0.559137ZM89.2605 0.559137H100.569L124.599 33.3051L154.358 0.559137H165.667L158.405 83.5624H146.042L151.47 21.5142L128.601 46.4969H118.347L99.7905 21.5142L94.362 83.5624H81.9987L89.2605 0.559137ZM182.073 0.559137H226.136C229.925 0.559137 233.28 1.49307 236.203 3.36094C239.168 5.18989 241.434 7.64146 243.001 10.7157C244.607 13.7898 245.245 17.2143 244.915 20.9889L244.189 29.2776C243.866 32.9744 242.632 36.3599 240.488 39.4341C238.387 42.4694 235.694 44.9015 232.409 46.7304C229.166 48.5205 225.65 49.4155 221.861 49.4155H197.193L198.266 37.1576H222.934C225.238 37.1576 227.259 36.3793 228.997 34.8228C230.735 33.2662 231.703 31.3595 231.9 29.1025L232.61 20.9889C232.807 18.7319 232.175 16.8057 230.713 15.2102C229.251 13.6147 227.368 12.817 225.063 12.817H193.364L187.174 83.5624H174.811L182.073 0.559137ZM253.415 74.5149L306.098 12.817H258.813L259.886 0.559137H324.749L323.947 9.72335L271.381 71.4213H318.315L317.253 83.5624H252.624L253.415 74.5149Z" fill="white"/>
</svg>
