<svg width="531" height="84" viewBox="0 0 531 84" fill="none" xmlns="http://www.w3.org/2000/svg">
<path d="M8.16679 0.559137H24.2215L54.7867 65.7593L60.491 0.559137H72.8543L65.5924 83.5624H49.5378L18.8959 19.2378L13.2682 83.5624H0.904946L8.16679 0.559137ZM87.2178 23.9075C87.5957 19.588 89.0512 15.6772 91.5841 12.1749C94.1596 8.63376 97.4142 5.81251 101.348 3.71116C105.282 1.60981 109.534 0.559137 114.104 0.559137H133.616C138.186 0.559137 142.255 1.60981 145.821 3.71116C149.426 5.81251 152.187 8.63376 154.104 12.1749C156.024 15.6772 156.795 19.588 156.417 23.9075L153.241 60.2141C152.866 64.4946 151.411 68.4054 148.874 71.9466C146.338 75.4878 143.083 78.309 139.11 80.4104C135.177 82.5117 130.924 83.5624 126.354 83.5624H106.842C102.272 83.5624 98.2039 82.5117 94.6377 80.4104C91.0716 78.309 88.3106 75.4878 86.3548 71.9466C84.438 68.4054 83.6669 64.4946 84.0414 60.2141L87.2178 23.9075ZM96.3996 60.2724C96.134 63.3077 97.1169 65.915 99.3481 68.0941C101.622 70.2344 104.477 71.3045 107.915 71.3045H127.427C130.903 71.3045 133.946 70.2344 136.555 68.0941C139.168 65.915 140.607 63.3077 140.872 60.2724L144.059 23.8491C144.324 20.8138 143.34 18.226 141.105 16.0858C138.874 13.9066 136.02 12.817 132.544 12.817H113.032C109.594 12.817 106.55 13.9066 103.898 16.0858C101.289 18.226 99.8518 20.8138 99.5862 23.8491L96.3996 60.2724ZM210.081 0.559137H221.389L245.419 33.3051L275.179 0.559137H286.487L279.225 83.5624H266.862L272.29 21.5142L249.421 46.4969H239.167L220.611 21.5142L215.182 83.5624H202.819L210.081 0.559137ZM300.851 23.9075C301.229 19.588 302.684 15.6772 305.217 12.1749C307.792 8.63376 311.047 5.81251 314.981 3.71116C318.915 1.60981 323.167 0.559137 327.737 0.559137H347.249C351.819 0.559137 355.887 1.60981 359.454 3.71116C363.059 5.81251 365.82 8.63376 367.736 12.1749C369.657 15.6772 370.428 19.588 370.05 23.9075L366.873 60.2141C366.499 64.4946 365.044 68.4054 362.507 71.9466C359.971 75.4878 356.716 78.309 352.743 80.4104C348.809 82.5117 344.557 83.5624 339.987 83.5624H320.475C315.905 83.5624 311.837 82.5117 308.271 80.4104C304.704 78.309 301.943 75.4878 299.988 71.9466C298.071 68.4054 297.3 64.4946 297.674 60.2141L300.851 23.9075ZM310.032 60.2724C309.767 63.3077 310.75 65.915 312.981 68.0941C315.255 70.2344 318.11 71.3045 321.548 71.3045H341.059C344.536 71.3045 347.579 70.2344 350.188 68.0941C352.8 65.915 354.239 63.3077 354.505 60.2724L357.692 23.8491C357.957 20.8138 356.973 18.226 354.738 16.0858C352.507 13.9066 349.653 12.817 346.176 12.817H326.665C323.227 12.817 320.183 13.9066 317.531 16.0858C314.922 18.226 313.485 20.8138 313.219 23.8491L310.032 60.2724ZM393.538 0.559137L411.958 68.6195L442.229 0.559137H455.413L418.327 83.5624H402.917L380.354 0.559137H393.538ZM466.018 0.559137H530.647L529.575 12.817H477.309L472.197 71.2462H524.463L523.385 83.5624H458.757L466.018 0.559137ZM482.466 34.2391H527.701L526.628 46.4969H481.394L482.466 34.2391Z" fill="white"/>
</svg>
